  0
SECTION
  2
HEADER
  9
$ACADVER
  1
AC1015
  9
$ACADMAINTVER
 70
     6
  9
$DWGCODEPAGE
  3
ANSI_1252
  9
$INSBASE
 10
0.0
 20
0.0
 30
0.0
  9
$EXTMIN
 10
-146.0785750377
 20
-97.690586555
 30
0.0
  9
$EXTMAX
 10
-68.958384244
 20
65.5769462169
 30
0.0
  9
$LIMMIN
 10
0.0
 20
0.0
  9
$LIMMAX
 10
420.0
 20
297.0
  9
$ORTHOMODE
 70
     0
  9
$REGENMODE
 70
     1
  9
$FILLMODE
 70
     1
  9
$QTEXTMODE
 70
     0
  9
$MIRRTEXT
 70
     1
  9
$LTSCALE
 40
1.0
  9
$ATTMODE
 70
     1
  9
$TEXTSIZE
 40
3.5
  9
$TRACEWID
 40
1.0
  9
$TEXTSTYLE
  7
Standard
  9
$CLAYER
  8
0
  9
$CELTYPE
  6
ByLayer
  9
$CECOLOR
 62
   256
  9
$CELTSCALE
 40
1.0
  9
$DISPSILH
 70
     0
  9
$DIMSCALE
 40
1.0
  9
$DIMASZ
 40
3.302
  9
$DIMEXO
 40
1.0
  9
$DIMDLI
 40
3.75
  9
$DIMRND
 40
0.0
  9
$DIMDLE
 40
0.0
  9
$DIMEXE
 40
1.0
  9
$DIMTP
 40
0.0
  9
$DIMTM
 40
0.0
  9
$DIMTXT
 40
3.5
  9
$DIMCEN
 40
2.5
  9
$DIMTSZ
 40
0.0
  9
$DIMTOL
 70
     0
  9
$DIMLIM
 70
     0
  9
$DIMTIH
 70
     1
  9
$DIMTOH
 70
     1
  9
$DIMSE1
 70
     0
  9
$DIMSE2
 70
     0
  9
$DIMTAD
 70
     1
  9
$DIMZIN
 70
     1
  9
$DIMBLK
  1

  9
$DIMASO
 70
     1
  9
$DIMSHO
 70
     1
  9
$DIMPOST
  1

  9
$DIMAPOST
  1

  9
$DIMALT
 70
     0
  9
$DIMALTD
 70
     3
  9
$DIMALTF
 40
0.0393700787
  9
$DIMLFAC
 40
1.0
  9
$DIMTOFL
 70
     1
  9
$DIMTVP
 40
0.0
  9
$DIMTIX
 70
     0
  9
$DIMSOXD
 70
     0
  9
$DIMSAH
 70
     0
  9
$DIMBLK1
  1

  9
$DIMBLK2
  1

  9
$DIMSTYLE
  2
ISO-25
  9
$DIMCLRD
 70
     0
  9
$DIMCLRE
 70
     0
  9
$DIMCLRT
 70
     0
  9
$DIMTFAC
 40
1.0
  9
$DIMGAP
 40
1.524
  9
$DIMJUST
 70
     0
  9
$DIMSD1
 70
     0
  9
$DIMSD2
 70
     0
  9
$DIMTOLJ
 70
     0
  9
$DIMTZIN
 70
     1
  9
$DIMALTZ
 70
     0
  9
$DIMALTTZ
 70
     0
  9
$DIMUPT
 70
     0
  9
$DIMDEC
 70
     2
  9
$DIMTDEC
 70
     2
  9
$DIMALTU
 70
     2
  9
$DIMALTTD
 70
     3
  9
$DIMTXSTY
  7
Standard
  9
$DIMAUNIT
 70
     0
  9
$DIMADEC
 70
     2
  9
$DIMALTRND
 40
0.0
  9
$DIMAZIN
 70
     0
  9
$DIMDSEP
 70
    44
  9
$DIMATFIT
 70
     3
  9
$DIMFRAC
 70
     0
  9
$DIMLDRBLK
  1

  9
$DIMLUNIT
 70
     2
  9
$DIMLWD
 70
    -2
  9
$DIMLWE
 70
    -2
  9
$DIMTMOVE
 70
     0
  9
$LUNITS
 70
     2
  9
$LUPREC
 70
     2
  9
$SKETCHINC
 40
1.0
  9
$FILLETRAD
 40
10.0
  9
$AUNITS
 70
     0
  9
$AUPREC
 70
     2
  9
$MENU
  1
.
  9
$ELEVATION
 40
0.0
  9
$PELEVATION
 40
0.0
  9
$THICKNESS
 40
0.0
  9
$LIMCHECK
 70
     0
  9
$CHAMFERA
 40
0.0
  9
$CHAMFERB
 40
0.0
  9
$CHAMFERC
 40
0.0
  9
$CHAMFERD
 40
0.0
  9
$SKPOLY
 70
     0
  9
$TDCREATE
 40
2459611.646175197
  9
$TDUCREATE
 40
2459611.646175197
  9
$TDUPDATE
 40
2459611.646216516
  9
$TDUUPDATE
 40
2459611.646216516
  9
$TDINDWG
 40
0.0000000116
  9
$TDUSRTIMER
 40
0.0000000116
  9
$USRTIMER
 70
     1
  9
$ANGBASE
 50
0.0
  9
$ANGDIR
 70
     0
  9
$PDMODE
 70
     0
  9
$PDSIZE
 40
-1.0
  9
$PLINEWID
 40
0.0
  9
$SPLFRAME
 70
     0
  9
$SPLINETYPE
 70
     6
  9
$SPLINESEGS
 70
     8
  9
$HANDSEED
  5
AF
  9
$SURFTAB1
 70
     6
  9
$SURFTAB2
 70
     6
  9
$SURFTYPE
 70
     6
  9
$SURFU
 70
     6
  9
$SURFV
 70
     6
  9
$UCSBASE
  2

  9
$UCSNAME
  2

  9
$UCSORG
 10
0.0
 20
0.0
 30
0.0
  9
$UCSXDIR
 10
1.0
 20
0.0
 30
0.0
  9
$UCSYDIR
 10
0.0
 20
1.0
 30
0.0
  9
$UCSORTHOREF
  2

  9
$UCSORTHOVIEW
 70
     0
  9
$UCSORGTOP
 10
0.0
 20
0.0
 30
0.0
  9
$UCSORGBOTTOM
 10
0.0
 20
0.0
 30
0.0
  9
$UCSORGLEFT
 10
0.0
 20
0.0
 30
0.0
  9
$UCSORGRIGHT
 10
0.0
 20
0.0
 30
0.0
  9
$UCSORGFRONT
 10
0.0
 20
0.0
 30
0.0
  9
$UCSORGBACK
 10
0.0
 20
0.0
 30
0.0
  9
$PUCSBASE
  2

  9
$PUCSNAME
  2

  9
$PUCSORG
 10
0.0
 20
0.0
 30
0.0
  9
$PUCSXDIR
 10
1.0
 20
0.0
 30
0.0
  9
$PUCSYDIR
 10
0.0
 20
1.0
 30
0.0
  9
$PUCSORTHOREF
  2

  9
$PUCSORTHOVIEW
 70
     0
  9
$PUCSORGTOP
 10
0.0
 20
0.0
 30
0.0
  9
$PUCSORGBOTTOM
 10
0.0
 20
0.0
 30
0.0
  9
$PUCSORGLEFT
 10
0.0
 20
0.0
 30
0.0
  9
$PUCSORGRIGHT
 10
0.0
 20
0.0
 30
0.0
  9
$PUCSORGFRONT
 10
0.0
 20
0.0
 30
0.0
  9
$PUCSORGBACK
 10
0.0
 20
0.0
 30
0.0
  9
$USERI1
 70
     0
  9
$USERI2
 70
     0
  9
$USERI3
 70
     0
  9
$USERI4
 70
     0
  9
$USERI5
 70
     0
  9
$USERR1
 40
0.0
  9
$USERR2
 40
0.0
  9
$USERR3
 40
0.0
  9
$USERR4
 40
0.0
  9
$USERR5
 40
0.0
  9
$WORLDVIEW
 70
     1
  9
$SHADEDGE
 70
     3
  9
$SHADEDIF
 70
    70
  9
$TILEMODE
 70
     1
  9
$MAXACTVP
 70
    64
  9
$PINSBASE
 10
0.0
 20
0.0
 30
0.0
  9
$PLIMCHECK
 70
     0
  9
$PEXTMIN
 10
1.0000000000E+20
 20
1.0000000000E+20
 30
1.0000000000E+20
  9
$PEXTMAX
 10
-1.0000000000E+20
 20
-1.0000000000E+20
 30
-1.0000000000E+20
  9
$PLIMMIN
 10
0.0
 20
0.0
  9
$PLIMMAX
 10
420.0
 20
297.0
  9
$UNITMODE
 70
     0
  9
$VISRETAIN
 70
     1
  9
$PLINEGEN
 70
     0
  9
$PSLTSCALE
 70
     1
  9
$TREEDEPTH
 70
  3020
  9
$CMLSTYLE
  2
Standard
  9
$CMLJUST
 70
     0
  9
$CMLSCALE
 40
20.0
  9
$PROXYGRAPHICS
 70
     1
  9
$MEASUREMENT
 70
     1
  9
$CELWEIGHT
370
    -1
  9
$ENDCAPS
280
     0
  9
$JOINSTYLE
280
     0
  9
$LWDISPLAY
290
     1
  9
$INSUNITS
 70
     4
  9
$HYPERLINKBASE
  1

  9
$STYLESHEET
  1

  9
$XEDIT
290
     1
  9
$CEPSNTYPE
380
     0
  9
$PSTYLEMODE
290
     1
  9
$FINGERPRINTGUID
  2
{2cb31e0d-a224-4283-acf4-5d29fd287e06}
  9
$VERSIONGUID
  2
{FAEB1C32-E019-11D5-929B-00C0DF256EC4}
  9
$EXTNAMES
290
     1
  9
$PSVPSCALE
 40
0.0
  9
$OLESTARTUP
290
     0
  0
ENDSEC
  0
SECTION
  2
CLASSES
  0
CLASS
  1
ACDBDICTIONARYWDFLT
  2
AcDbDictionaryWithDefault
  3
ObjectDBX Classes
 90
        0
280
     0
281
     0
  0
CLASS
  1
VISUALSTYLE
  2
AcDbVisualStyle
  3
ObjectDBX Classes
 90
     4095
280
     0
281
     0
  0
CLASS
  1
MATERIAL
  2
AcDbMaterial
  3
ObjectDBX Classes
 90
     1153
280
     0
281
     0
  0
CLASS
  1
SCALE
  2
AcDbScale
  3
ObjectDBX Classes
 90
     1153
280
     0
281
     0
  0
CLASS
  1
TABLESTYLE
  2
AcDbTableStyle
  3
ObjectDBX Classes
 90
     4095
280
     0
281
     0
  0
CLASS
  1
MLEADERSTYLE
  2
AcDbMLeaderStyle
  3
ACDB_MLEADERSTYLE_CLASS
 90
     4095
280
     0
281
     0
  0
CLASS
  1
SUN
  2
AcDbSun
  3
SCENEOE
 90
     1153
280
     0
281
     0
  0
CLASS
  1
ACDBPLACEHOLDER
  2
AcDbPlaceHolder
  3
ObjectDBX Classes
 90
        0
280
     0
281
     0
  0
CLASS
  1
LAYOUT
  2
AcDbLayout
  3
ObjectDBX Classes
 90
        0
280
     0
281
     0
  0
ENDSEC
  0
SECTION
  2
TABLES
  0
TABLE
  2
VPORT
  5
8
330
0
100
AcDbSymbolTable
 70
     1
  0
VPORT
  5
29
330
8
100
AcDbSymbolTableRecord
100
AcDbViewportTableRecord
  2
*Active
 70
     0
 10
0.0
 20
0.0
 11
1.0
 21
1.0
 12
-107.5184796408
 22
-16.0568201691
 13
0.0
 23
0.0
 14
10.0
 24
10.0
 15
10.0
 25
10.0
 16
0.0
 26
0.0
 36
1.0
 17
0.0
 27
0.0
 37
0.0
 40
166.5328834273
 41
0.4723547265
 42
50.0
 43
0.0
 44
0.0
 50
0.0
 51
0.0
 71
     0
 72
   100
 73
     1
 74
     3
 75
     0
 76
     0
 77
     0
 78
     0
281
     0
 65
     1
110
0.0
120
0.0
130
0.0
111
1.0
121
0.0
131
0.0
112
0.0
122
1.0
132
0.0
 79
     0
146
0.0
  0
ENDTAB
  0
TABLE
  2
LTYPE
  5
5
330
0
100
AcDbSymbolTable
 70
     6
  0
LTYPE
  5
14
330
5
100
AcDbSymbolTableRecord
100
AcDbLinetypeTableRecord
  2
ByBlock
 70
     0
  3

 72
    65
 73
     0
 40
0.0
  0
LTYPE
  5
15
330
5
100
AcDbSymbolTableRecord
100
AcDbLinetypeTableRecord
  2
ByLayer
 70
     0
  3

 72
    65
 73
     0
 40
0.0
  0
LTYPE
  5
16
330
5
100
AcDbSymbolTableRecord
100
AcDbLinetypeTableRecord
  2
Continuous
 70
     0
  3
Solid line
 72
    65
 73
     0
 40
0.0
  0
LTYPE
  5
6E
330
5
100
AcDbSymbolTableRecord
100
AcDbLinetypeTableRecord
  2
HIDDEN
 70
     0
  3
Hidden __ __ __ __ __ __ __ __ __ __ __ __ __ __
 72
    65
 73
     2
 40
1.905
 49
1.27
 74
     0
 49
-0.635
 74
     0
  0
LTYPE
  5
6F
330
5
100
AcDbSymbolTableRecord
100
AcDbLinetypeTableRecord
  2
PHANTOM
 70
     0
  3
Phantom ______  __  __  ______  __  __  ______
 72
    65
 73
     6
 40
12.7
 49
6.35
 74
     0
 49
-1.27
 74
     0
 49
1.27
 74
     0
 49
-1.27
 74
     0
 49
1.27
 74
     0
 49
-1.27
 74
     0
  0
LTYPE
  5
70
330
5
100
AcDbSymbolTableRecord
100
AcDbLinetypeTableRecord
  2
CENTER
 70
     0
  3
Center ____ _ ____ _ ____ _ ____ _ ____ _ ____
 72
    65
 73
     4
 40
10.16
 49
6.35
 74
     0
 49
-1.27
 74
     0
 49
1.27
 74
     0
 49
-1.27
 74
     0
  0
LTYPE
  5
71
330
5
100
AcDbSymbolTableRecord
100
AcDbLinetypeTableRecord
  2
CENTERX2
 70
     0
  3
Center (2x) ________  __  ________  __  _____
 72
    65
 73
     4
 40
20.32
 49
12.7
 74
     0
 49
-2.54
 74
     0
 49
2.54
 74
     0
 49
-2.54
 74
     0
  0
LTYPE
  5
72
330
5
100
AcDbSymbolTableRecord
100
AcDbLinetypeTableRecord
  2
DOT2
 70
     0
  3
Dot (.5x) ........................................
 72
    65
 73
     2
 40
0.635
 49
0.0
 74
     0
 49
-0.635
 74
     0
  0
ENDTAB
  0
TABLE
  2
LAYER
  5
2
330
0
100
AcDbSymbolTable
 70
     1
  0
LAYER
  5
10
330
2
100
AcDbSymbolTableRecord
100
AcDbLayerTableRecord
  2
0
 70
     0
 62
     7
  6
Continuous
370
    -3
390
F
  0
ENDTAB
  0
TABLE
  2
STYLE
  5
3
330
0
100
AcDbSymbolTable
 70
     2
  0
STYLE
  5
11
330
3
100
AcDbSymbolTableRecord
100
AcDbTextStyleTableRecord
  2
Standard
 70
     0
 40
0.0
 41
1.0
 50
0.0
 71
     0
 42
3.5
  3
txt
  4

  0
STYLE
  5
AC
330
3
100
AcDbSymbolTableRecord
100
AcDbTextStyleTableRecord
  2
SLDTEXTSTYLE0
 70
     0
 40
0.0
 41
0.7
 50
0.0
 71
     0
 42
3.5
  3
TXT
  4

  0
ENDTAB
  0
TABLE
  2
VIEW
  5
6
330
0
100
AcDbSymbolTable
 70
     0
  0
ENDTAB
  0
TABLE
  2
UCS
  5
7
330
0
100
AcDbSymbolTable
 70
     0
  0
ENDTAB
  0
TABLE
  2
APPID
  5
9
330
0
100
AcDbSymbolTable
 70
     1
  0
APPID
  5
12
330
9
100
AcDbSymbolTableRecord
100
AcDbRegAppTableRecord
  2
ACAD
 70
     0
  0
ENDTAB
  0
TABLE
  2
DIMSTYLE
  5
A
330
0
100
AcDbSymbolTable
 70
     1
100
AcDbDimStyleTable
  0
DIMSTYLE
105
27
330
A
100
AcDbSymbolTableRecord
100
AcDbDimStyleTableRecord
  2
ISO-25
 70
     0
 41
2.5
 42
0.625
 43
3.75
 44
1.25
 73
     0
 74
     0
 77
     1
 78
     8
140
2.5
141
2.5
143
0.0393700787
147
0.625
171
     3
172
     1
178
     0
271
     2
272
     2
274
     3
278
    44
283
     0
284
     8
340
11
  0
ENDTAB
  0
TABLE
  2
BLOCK_RECORD
  5
1
330
0
100
AcDbSymbolTable
 70
     1
  0
BLOCK_RECORD
  5
1F
330
1
100
AcDbSymbolTableRecord
100
AcDbBlockTableRecord
  2
*Model_Space
340
22
  0
BLOCK_RECORD
  5
1B
330
1
100
AcDbSymbolTableRecord
100
AcDbBlockTableRecord
  2
*Paper_Space
340
1E
  0
BLOCK_RECORD
  5
23
330
1
100
AcDbSymbolTableRecord
100
AcDbBlockTableRecord
  2
*Paper_Space0
340
26
  0
ENDTAB
  0
ENDSEC
  0
SECTION
  2
BLOCKS
  0
BLOCK
  5
20
330
1F
100
AcDbEntity
  8
0
100
AcDbBlockBegin
  2
*Model_Space
 70
     0
 10
0.0
 20
0.0
 30
0.0
  3
*Model_Space
  1

  0
ENDBLK
  5
21
330
1F
100
AcDbEntity
  8
0
100
AcDbBlockEnd
  0
BLOCK
  5
1C
330
1B
100
AcDbEntity
 67
     1
  8
0
100
AcDbBlockBegin
  2
*Paper_Space
 70
     0
 10
0.0
 20
0.0
 30
0.0
  3
*Paper_Space
  1

  0
ENDBLK
  5
1D
330
1B
100
AcDbEntity
 67
     1
  8
0
100
AcDbBlockEnd
  0
BLOCK
  5
24
330
23
100
AcDbEntity
  8
0
100
AcDbBlockBegin
  2
*Paper_Space0
 70
     0
 10
0.0
 20
0.0
 30
0.0
  3
*Paper_Space0
  1

  0
ENDBLK
  5
25
330
23
100
AcDbEntity
  8
0
100
AcDbBlockEnd
  0
ENDSEC
  0
SECTION
  2
ENTITIES
  0
SPLINE
  5
73
330
1F
100
AcDbEntity
  8
0
  6
Continuous
 62
   144
370
    18
100
AcDbSpline
210
0.0
220
0.0
230
1.0
 70
     8
 71
     3
 72
    50
 73
    46
 74
     0
 42
0.000000001
 43
0.00000001
 40
0.0
 40
0.0
 40
0.0
 40
0.0
 40
0.0078129670696086
 40
0.0156255555339535
 40
0.0234377729460868
 40
0.0312501846819616
 40
0.0390629890926164
 40
0.0468757992450019
 40
0.062500834441277
 40
0.0703133349737582
 40
0.0781258936496281
 40
0.0937510286758877
 40
0.1250012143218951
 40
0.1562514123373353
 40
0.1718765166754359
 40
0.1875016201317516
 40
0.2031267236543876
 40
0.2187518273002924
 40
0.2500020295240012
 40
0.2812522262441564
 40
0.3125024215325683
 40
0.34375262021288
 40
0.3750028246689496
 40
0.3906279281270189
 40
0.4062530317267871
 40
0.4375032351413167
 40
0.4687534297357994
 40
0.5000036110804034
 40
0.5312537784375014
 40
0.5625039329626461
 40
0.6250034102296678
 40
0.6875025899357782
 40
0.7500012184167802
 40
0.8124985663217295
 40
0.8437484572737557
 40
0.8749982723330805
 40
0.9062479730928177
 40
0.9218733635457029
 40
0.9374984260476513
 40
0.953123902087625
 40
0.9687496689713776
 40
0.9765620859154384
 40
0.9843743579732795
 40
0.9921870150247335
 40
1.0
 40
1.0
 40
1.0
 40
1.0
 10
-145.5017948956053
 20
-61.21833242246028
 30
0.0
 10
-145.4966545081278
 20
-60.9313923328902
 30
0.0
 10
-145.4863739822688
 20
-60.35752605845834
 30
0.0
 10
-145.4743817297511
 20
-59.49668785941224
 30
0.0
 10
-145.4696410496594
 20
-58.63578844248465
 30
0.0
 10
-145.4743267602231
 20
-57.77488440650325
 30
0.0
 10
-145.4844460835524
 20
-56.91401648315328
 30
0.0
 10
-145.5003094316978
 20
-55.76622648140967
 30
0.0
 10
-145.5162611416453
 20
-54.6184488197033
 30
0.0
 10
-145.5332611513208
 20
-53.47069549072592
 30
0.0
 10
-145.5504304577956
 20
-52.32294110493135
 30
0.0
 10
-145.5786921839987
 20
-50.31434267607811
 30
0.0
 10
-145.6094536067367
 20
-47.44478846083022
 30
0.0
 10
-145.6280048391321
 20
-44.57513509883942
 30
0.0
 10
-145.6380923865245
 20
-42.27939085159191
 30
0.0
 10
-145.6442572191557
 20
-40.55757679631113
 30
0.0
 10
-145.6499855762122
 20
-38.83576137019372
 30
0.0
 10
-145.658314033851
 20
-36.54001014578515
 30
0.0
 10
-145.6723111686971
 20
-33.67033356374372
 30
0.0
 10
-145.700451239819
 20
-30.22679128489727
 30
0.0
 10
-145.7425213950609
 20
-26.78338986079905
 30
0.0
 10
-145.7978034780224
 20
-23.3401779790681
 30
0.0
 10
-145.8516989803843
 20
-20.47097477277328
 30
0.0
 10
-145.8964603091632
 20
-18.17564476438075
 30
0.0
 10
-145.9411284256884
 20
-15.88031299431618
 30
0.0
 10
-145.9945357425229
 20
-13.01110045457115
 30
0.0
 10
-146.0474752676537
 20
-9.567848804751883
 30
0.0
 10
-146.0825269482554
 20
-6.124359997437018
 30
0.0
 10
-146.093883223666
 20
-2.680696914476322
 30
0.0
 10
-146.0712201953322
 20
1.91078594378123
 30
0.0
 10
-145.9624899939751
 20
7.649501633744317
 30
0.0
 10
-145.6827468282752
 20
14.53159306940475
 30
0.0
 10
-145.2315665243677
 20
21.40465499510696
 30
0.0
 10
-144.6764873864685
 20
27.11844460003221
 30
0.0
 10
-144.0870715803853
 20
31.67222937976725
 30
0.0
 10
-143.5612987069517
 20
35.07585522998401
 30
0.0
 10
-143.0441688186017
 20
37.89901132311486
 30
0.0
 10
-142.5799243313584
 20
40.14742128100607
 30
0.0
 10
-142.2037993463836
 20
41.82777535181194
 30
0.0
 10
-141.8003575569314
 20
43.50176299834227
 30
0.0
 10
-141.4442428124776
 20
44.8918366354642
 30
0.0
 10
-141.1421844053984
 20
45.99930014464791
 30
0.0
 10
-140.9059358334733
 20
46.82716701470991
 30
0.0
 10
-140.6632876187356
 20
47.65319076535694
 30
0.0
 10
-140.4993823146906
 20
48.20325167195246
 30
0.0
 10
-140.4174279427882
 20
48.47828789711126
 30
0.0
  0
SPLINE
  5
74
330
1F
100
AcDbEntity
  8
0
  6
Continuous
 62
   144
370
    18
100
AcDbSpline
210
0.0
220
0.0
230
1.0
 70
     8
 71
     3
 72
    24
 73
    20
 74
     0
 42
0.000000001
 43
0.00000001
 40
0.0
 40
0.0
 40
0.0
 40
0.0
 40
0.0312505503598811
 40
0.0625003370447033
 40
0.1249958432847348
 40
0.1874893699475556
 40
0.2499880331423804
 40
0.3124897130391651
 40
0.3749897994716846
 40
0.499986956032056
 40
0.5625024765261379
 40
0.6250102194739421
 40
0.6562584193125558
 40
0.6875033220005003
 40
0.7499969839680591
 40
0.8125064617590868
 40
0.8750141127050158
 40
0.937509930139763
 40
1.0
 40
1.0
 40
1.0
 40
1.0
 10
-140.4174266592208
 20
48.4782922047353
 30
0.0
 10
-140.3681898808244
 20
48.6301043411417
 30
0.0
 10
-140.2697175272393
 20
48.9337249040953
 30
0.0
 10
-140.0717905881257
 20
49.5406201186895
 30
0.0
 10
-139.82080959839
 20
50.29804587716575
 30
0.0
 10
-139.5075263857587
 20
51.20289043530074
 30
0.0
 10
-139.1785107324313
 20
52.10217180211735
 30
0.0
 10
-138.8350608598845
 20
52.99607185440236
 30
0.0
 10
-138.3588889579764
 20
54.18073041220489
 30
0.0
 10
-137.8531205253032
 20
55.35349215272023
 30
0.0
 10
-137.3113379811757
 20
56.50980714011411
 30
0.0
 10
-136.9548519305806
 20
57.22396688285288
 30
0.0
 10
-136.657426533562
 20
57.78885294344722
 30
0.0
 10
-136.3511123885668
 20
58.34889091973599
 30
0.0
 10
-135.9528698749833
 20
59.04047692420905
 30
0.0
 10
-135.4588838352603
 20
59.86087956609876
 30
0.0
 10
-134.9573352924573
 20
60.67667079773731
 30
0.0
 10
-134.4525594462775
 20
61.49034782693735
 30
0.0
 10
-134.1147693280276
 20
62.03194763541367
 30
0.0
 10
-133.945882035675
 20
62.30273508670484
 30
0.0
  0
SPLINE
  5
76
330
1F
100
AcDbEntity
  8
0
  6
Continuous
 62
   144
370
    18
100
AcDbSpline
210
0.0
220
0.0
230
1.0
 70
     8
 71
     3
 72
    20
 73
    16
 74
     0
 42
0.000000001
 43
0.00000001
 40
0.0
 40
0.0
 40
0.0
 40
0.0
 40
0.0631481634473213
 40
0.1262065835192341
 40
0.1890940341793582
 40
0.2517464954942045
 40
0.3762123105002256
 40
0.438084812615419
 40
0.4998231176303387
 40
0.6234660293920562
 40
0.7480513160310038
 40
0.8107609844408197
 40
0.8737007121350886
 40
0.9368068236445111
 40
1.0
 40
1.0
 40
1.0
 40
1.0
 10
-132.1551609247603
 20
61.36081540736441
 30
0.0
 10
-132.0715204568962
 20
61.46111833563283
 30
0.0
 10
-131.9043583872997
 20
61.6615816460867
 30
0.0
 10
-131.6518976028791
 20
61.96025580183031
 30
0.0
 10
-131.3961071522603
 20
62.25475651871286
 30
0.0
 10
-131.0492093302528
 20
62.63817352107663
 30
0.0
 10
-130.6880900311569
 20
63.00596926007845
 30
0.0
 10
-130.3063825258812
 20
63.34904747176219
 30
0.0
 10
-129.909473655679
 20
63.6718280697803
 30
0.0
 10
-129.3800284219013
 20
64.0351952272351
 30
0.0
 10
-128.8223730195769
 20
64.3562534386986
 30
0.0
 10
-128.3641517579053
 20
64.59685673643932
 30
0.0
 10
-128.0150668519676
 20
64.77163615804193
 30
0.0
 10
-127.6628878873421
 20
64.94236357676792
 30
0.0
 10
-127.4271227527117
 20
65.0548070092198
 30
0.0
 10
-127.3091589226455
 20
65.1110674820781
 30
0.0
  0
SPLINE
  5
77
330
1F
100
AcDbEntity
  8
0
  6
Continuous
 62
   144
370
    18
100
AcDbSpline
210
0.0
220
0.0
230
1.0
 70
     8
 71
     3
 72
    22
 73
    18
 74
     0
 42
0.000000001
 43
0.00000001
 40
0.0
 40
0.0
 40
0.0
 40
0.0
 40
0.063724586470691
 40
0.1272913637992222
 40
0.1905563569606585
 40
0.2534037497742722
 40
0.3157611104952715
 40
0.3776157381645273
 40
0.5001059276867593
 40
0.5612285494296323
 40
0.6226117977098029
 40
0.6844250906279322
 40
0.7467395624976753
 40
0.8095462724353002
 40
0.872774198128701
 40
0.9363072297903934
 40
1.0
 40
1.0
 40
1.0
 40
1.0
 10
-127.3091589226455
 20
65.1110674820781
 30
0.0
 10
-127.1729518961108
 20
65.14332332861734
 30
0.0
 10
-126.9008751494909
 20
65.20775514251962
 30
0.0
 10
-126.4927634029934
 20
65.30076401544032
 30
0.0
 10
-126.0849886625422
 20
65.38641233835975
 30
0.0
 10
-125.6777269522405
 20
65.46101147858337
 30
0.0
 10
-125.2710865497407
 20
65.52086179763288
 30
0.0
 10
-124.7319174102325
 20
65.57585829621463
 30
0.0
 10
-124.191021146868
 20
65.5869180626448
 30
0.0
 10
-123.6546876214566
 20
65.53787621476253
 30
0.0
 10
-123.2545442699589
 20
65.4745990639851
 30
0.0
 10
-122.8560312233794
 20
65.38875872551989
 30
0.0
 10
-122.4588585355843
 20
65.28413303692285
 30
0.0
 10
-122.0627439994395
 20
65.16451059139827
 30
0.0
 10
-121.6674125300396
 20
65.03365139291108
 30
0.0
 10
-121.2725977311119
 20
64.89530669958494
 30
0.0
 10
-121.00966898756
 20
64.80062225005652
 30
0.0
 10
-120.8780395554934
 20
64.75322058469044
 30
0.0
  0
SPLINE
  5
78
330
1F
100
AcDbEntity
  8
0
  6
Continuous
 62
   144
370
    18
100
AcDbSpline
210
0.0
220
0.0
230
1.0
 70
     8
 71
     3
 72
    46
 73
    42
 74
     0
 42
0.000000001
 43
0.00000001
 40
0.0
 40
0.0
 40
0.0
 40
0.0
 40
0.0158061238364795
 40
0.0315931779751847
 40
0.0473437376864641
 40
0.0630436964239272
 40
0.0942588425955841
 40
0.1252591324704202
 40
0.1407343516879991
 40
0.156236563478364
 40
0.1717887798066064
 40
0.1873988124191048
 40
0.203062308083235
 40
0.2187655394353318
 40
0.2344881027985128
 40
0.2423490740188202
 40
0.2502055155210698
 40
0.2606682089818583
 40
0.2815449326616434
 40
0.3127708991509863
 40
0.3377112732186864
 40
0.3751283841304147
 40
0.4063502766489056
 40
0.4375879927577717
 40
0.4688278664921367
 40
0.5000696102647921
 40
0.5625327757158042
 40
0.6249985478609399
 40
0.6874831188259806
 40
0.7499425145567427
 40
0.812396962873722
 40
0.8280474324573904
 40
0.8437176373031132
 40
0.8750464868199789
 40
0.9062769959151568
 40
0.9218560988014355
 40
0.937433226028855
 40
0.9530331818298153
 40
0.9686648368074344
 40
0.9843245269673084
 40
1.0
 40
1.0
 40
1.0
 40
1.0
 10
-120.8780395554934
 20
64.75322058469044
 30
0.0
 10
-120.7814594911829
 20
64.6767271300169
 30
0.0
 10
-120.5884158840225
 20
64.52383250813241
 30
0.0
 10
-120.3004797501984
 20
64.29301622107381
 30
0.0
 10
-120.0159151867994
 20
64.05933830279699
 30
0.0
 10
-119.6439826753335
 20
63.74267663000535
 30
0.0
 10
-119.1956963817745
 20
63.3324625835264
 30
0.0
 10
-118.7791662066215
 20
62.89172308267062
 30
0.0
 10
-118.4743148529219
 20
62.51669875216222
 30
0.0
 10
-118.260145645793
 20
62.22383570644966
 30
0.0
 10
-118.0578310084075
 20
61.92146043261995
 30
0.0
 10
-117.8653846496503
 20
61.61126190878004
 30
0.0
 10
-117.6806868039772
 20
61.29505453003809
 30
0.0
 10
-117.5016633102273
 20
60.97461449016356
 30
0.0
 10
-117.3554729866959
 20
60.70553403274253
 30
0.0
 10
-117.2392092558468
 20
60.48980631668579
 30
0.0
 10
-117.1424858619001
 20
60.31012116785081
 30
0.0
 10
-116.9971744900821
 20
60.04137307123136
 30
0.0
 10
-116.762752083298
 20
59.6137329399935
 30
0.0
 10
-116.4691113258829
 20
59.08988168368662
 30
0.0
 10
-116.1054412445273
 20
58.45754281686779
 30
0.0
 10
-115.7340908613234
 20
57.82969667898107
 30
0.0
 10
-115.3271254190267
 20
57.16598912462932
 30
0.0
 10
-114.931559411715
 20
56.55194260702015
 30
0.0
 10
-114.5181653967584
 20
55.94948363655397
 30
0.0
 10
-113.9384554623647
 20
55.16670327574366
 30
0.0
 10
-113.1584360908936
 20
54.23030316206562
 30
0.0
 10
-112.1298345254292
 20
53.1903792154799
 30
0.0
 10
-111.0102443757332
 20
52.2485842448915
 30
0.0
 10
-109.8016536137227
 20
51.42355906659471
 30
0.0
 10
-108.830568916967
 20
50.91002699011332
 30
0.0
 10
-108.1605672121022
 20
50.61768043361126
 30
0.0
 10
-107.7072134365412
 20
50.43601042441404
 30
0.0
 10
-107.1299895060194
 20
50.2377666195208
 30
0.0
 10
-106.5387978041293
 20
50.0874636232981
 30
0.0
 10
-106.0596653743072
 20
50.00327784959595
 30
0.0
 10
-105.6979602548076
 20
49.95769362111665
 30
0.0
 10
-105.3344503408296
 20
49.92566444620258
 30
0.0
 10
-104.9695648255831
 20
49.90390259913161
 30
0.0
 10
-104.6037708507965
 20
49.88894938611935
 30
0.0
 10
-104.359645934053
 20
49.88125401897182
 30
0.0
 10
-104.2375219953486
 20
49.87740439739954
 30
0.0
  0
SPLINE
  5
79
330
1F
100
AcDbEntity
  8
0
  6
Continuous
 62
   144
370
    18
100
AcDbSpline
210
0.0
220
0.0
230
1.0
 70
     8
 71
     3
 72
    27
 73
    23
 74
     0
 42
0.000000001
 43
0.00000001
 40
0.0
 40
0.0
 40
0.0
 40
0.0
 40
0.0622969818922345
 40
0.1246200472739496
 40
0.1870052643690785
 40
0.249508592418676
 40
0.2808307905235187
 40
0.3122146775008391
 40
0.3436478397882485
 40
0.3751015748310683
 40
0.4065436798439879
 40
0.4379415905779406
 40
0.5004891214227939
 40
0.5625928179667891
 40
0.6242995265310667
 40
0.6859389654378657
 40
0.747877292305306
 40
0.8102909440536662
 40
0.8731959302430436
 40
0.9364912459602612
 40
0.9682320463622409
 40
1.0
 40
1.0
 40
1.0
 40
1.0
 10
-104.2375151034522
 20
49.87740418014104
 30
0.0
 10
-104.0995501863749
 20
49.88307265182471
 30
0.0
 10
-103.8235625868784
 20
49.89441196855777
 30
0.0
 10
-103.4095424960004
 20
49.91445939828592
 30
0.0
 10
-102.995389923712
 20
49.94057935833391
 30
0.0
 10
-102.6503544928512
 20
49.96994595837906
 30
0.0
 10
-102.3743893092973
 20
49.9994493179659
 30
0.0
 10
-102.1673048200442
 20
50.02510815051581
 30
0.0
 10
-101.9602703550212
 20
50.05336526925275
 30
0.0
 10
-101.7532927830103
 20
50.08294274031326
 30
0.0
 10
-101.5464123405896
 20
50.11265249346721
 30
0.0
 10
-101.2711194162017
 20
50.15077586563668
 30
0.0
 10
-100.9277263044598
 20
50.19269245337783
 30
0.0
 10
-100.5156746966428
 20
50.22442041000347
 30
0.0
 10
-100.1041434443529
 20
50.2272511242103
 30
0.0
 10
-99.69439920093136
 20
50.19291585998008
 30
0.0
 10
-99.28690707712612
 20
50.12867529293046
 30
0.0
 10
-98.881168392337
 20
50.04039762120009
 30
0.0
 10
-98.47673065339275
 20
49.93421307222468
 30
0.0
 10
-98.14072328297077
 20
49.83588018069583
 30
0.0
 10
-97.87180901843587
 20
49.7541472480379
 30
0.0
 10
-97.73726763665901
 20
49.71274613088468
 30
0.0
 10
-97.66996818411462
 20
49.69203672176208
 30
0.0
  0
SPLINE
  5
7D
330
1F
100
AcDbEntity
  8
0
  6
Continuous
 62
   144
370
    18
100
AcDbSpline
210
0.0
220
0.0
230
1.0
 70
     8
 71
     3
 72
    20
 73
    16
 74
     0
 42
0.000000001
 43
0.00000001
 40
0.0
 40
0.0
 40
0.0
 40
0.0
 40
0.0630277979838781
 40
0.1259791478037661
 40
0.1887851128875586
 40
0.2513919084188962
 40
0.3758999312154623
 40
0.437857608766238
 40
0.4997134515632206
 40
0.623601251672806
 40
0.7482945650953284
 40
0.8109902077107567
 40
0.8738774100858999
 40
0.9369028970381439
 40
1.0
 40
1.0
 40
1.0
 40
1.0
 10
-93.9032038300427
 20
48.4410230450467
 30
0.0
 10
-93.88265364964768
 20
48.33679530993989
 30
0.0
 10
-93.84157821474132
 20
48.12846626043652
 30
0.0
 10
-93.78198756136455
 20
47.81589337446728
 30
0.0
 10
-93.72646772238718
 20
47.50327630804725
 30
0.0
 10
-93.66070978419343
 20
47.08719066036716
 30
0.0
 10
-93.61106876469569
 20
46.66996904624146
 30
0.0
 10
-93.58588363622219
 20
46.25205586654065
 30
0.0
 10
-93.58015387765765
 20
45.83443123512841
 30
0.0
 10
-93.61126388570484
 20
45.31139833060142
 30
0.0
 10
-93.6794807356308
 20
44.79092067421803
 30
0.0
 10
-93.748930976859
 20
44.3748158332554
 30
0.0
 10
-93.80672185644133
 20
44.06219770912728
 30
0.0
 10
-93.86824984989987
 20
43.74961418229107
 30
0.0
 10
-93.91050578314342
 20
43.54127480996775
 30
0.0
 10
-93.93164574682824
 20
43.43704597328237
 30
0.0
  0
SPLINE
  5
7E
330
1F
100
AcDbEntity
  8
0
  6
Continuous
 62
   144
370
    18
100
AcDbSpline
210
0.0
220
0.0
230
1.0
 70
     8
 71
     3
 72
    24
 73
    20
 74
     0
 42
0.000000001
 43
0.00000001
 40
0.0
 40
0.0
 40
0.0
 40
0.0
 40
0.0624895498523902
 40
0.1249785825990759
 40
0.249957091116737
 40
0.2812040739741099
 40
0.3124526887465808
 40
0.3437019867963283
 40
0.3749506343356049
 40
0.4374419923899131
 40
0.4999295297087183
 40
0.5624405069181493
 40
0.6249776862004508
 40
0.7500075761169299
 40
0.812485236799922
 40
0.8749658477862724
 40
0.9374731378740452
 40
0.9687357376539265
 40
1.0
 40
1.0
 40
1.0
 40
1.0
 10
-93.93164642945625
 20
43.43704260763693
 30
0.0
 10
-94.00928378083195
 20
43.22183307493012
 30
0.0
 10
-94.16455784112848
 20
42.79141579039151
 30
0.0
 10
-94.47686174012424
 20
41.93121963349487
 30
0.0
 10
-94.7546783895902
 20
41.18017794638914
 30
0.0
 10
-94.9994235172375
 20
40.53891832467532
 30
0.0
 10
-95.12309327090087
 20
40.21875656685123
 30
0.0
 10
-95.24718974684824
 20
39.8987538424762
 30
0.0
 10
-95.41224029471579
 20
39.47194868739144
 30
0.0
 10
-95.615841183288
 20
38.93742527924884
 30
0.0
 10
-95.84992659409457
 20
38.29208634156554
 30
0.0
 10
-96.06700620399582
 20
37.64059084646195
 30
0.0
 10
-96.32988351814814
 20
36.76346252452166
 30
0.0
 10
-96.55227292670592
 20
35.87463046064335
 30
0.0
 10
-96.72902032852393
 20
34.97648501396258
 30
0.0
 10
-96.84320007243795
 20
34.29964215991976
 30
0.0
 10
-96.92836337677888
 20
33.73394247043677
 30
0.0
 10
-96.99347410453139
 20
33.28082481658888
 30
0.0
 10
-97.02553152956878
 20
33.05415873737732
 30
0.0
 10
-97.04156066828502
 20
32.94082268428783
 30
0.0
  0
SPLINE
  5
7F
330
1F
100
AcDbEntity
  8
0
  6
Continuous
 62
   144
370
    18
100
AcDbSpline
210
0.0
220
0.0
230
1.0
 70
     8
 71
     3
 72
    13
 73
     9
 74
     0
 42
0.000000001
 43
0.00000001
 40
0.0
 40
0.0
 40
0.0
 40
0.0
 40
0.1250027173577841
 40
0.2500040963574383
 40
0.5000003082234022
 40
0.7499962935657941
 40
0.8749975511673453
 40
0.9999999999999999
 40
0.9999999999999999
 40
0.9999999999999999
 40
0.9999999999999999
 10
-97.0415625820998
 20
32.94080915233677
 30
0.0
 10
-97.06386995198083
 20
32.72689105695186
 30
0.0
 10
-97.10848445290614
 20
32.29905715652441
 30
0.0
 10
-97.19668310303605
 20
31.44329703491357
 30
0.0
 10
-97.30312118187308
 20
30.37320950458874
 30
0.0
 10
-97.39917885754164
 20
29.3021401254153
 30
0.0
 10
-97.47283933134499
 20
28.44500725605229
 30
0.0
 10
-97.50914630088629
 20
28.01638909801185
 30
0.0
 10
-97.52729987215567
 20
27.80207899784022
 30
0.0
  0
SPLINE
  5
80
330
1F
100
AcDbEntity
  8
0
  6
Continuous
 62
   144
370
    18
100
AcDbSpline
210
0.0
220
0.0
230
1.0
 70
     8
 71
     3
 72
    32
 73
    28
 74
     0
 42
0.000000001
 43
0.00000001
 40
0.0
 40
0.0
 40
0.0
 40
0.0
 40
0.0156256953132495
 40
0.0312489220597926
 40
0.0624800391928697
 40
0.0936874728833398
 40
0.1248890995399497
 40
0.1873563825967074
 40
0.2498665393731627
 40
0.3123766823856445
 40
0.3748743444619017
 40
0.437395552491161
 40
0.4999154728447026
 40
0.5713520046024719
 40
0.6071111688799221
 40
0.6428643799851409
 40
0.6696622963730948
 40
0.6964478674173264
 40
0.7500449948730593
 40
0.7813450721459121
 40
0.8126352382671803
 40
0.8750943888556306
 40
0.906276311286533
 40
0.9374757032272235
 40
0.9687213522679003
 40
0.9843586364646844
 40
1.0
 40
1.0
 40
1.0
 40
1.0
 10
-97.52729994433248
 20
27.80207814575476
 30
0.0
 10
-97.53103368043077
 20
27.71695150377965
 30
0.0
 10
-97.53850056276713
 20
27.54671166824179
 30
0.0
 10
-97.55247375285344
 20
27.2062886453114
 30
0.0
 10
-97.56634767657492
 20
26.78081941525053
 30
0.0
 10
-97.57149710626983
 20
26.27014274626831
 30
0.0
 10
-97.55532298880921
 20
25.58923720021379
 30
0.0
 10
-97.47752066591997
 20
24.73974898372116
 30
0.0
 10
-97.28328386623664
 20
23.73414227431001
 30
0.0
 10
-96.97954321985378
 20
22.75525893732907
 30
0.0
 10
-96.55533343739802
 20
21.82152902768424
 30
0.0
 10
-96.0061822462231
 20
20.95452891640326
 30
0.0
 10
-95.30213510244846
 20
20.14171518645728
 30
0.0
 10
-94.58495896003201
 20
19.54809239075836
 30
0.0
 10
-93.9224770270886
 20
19.13575315255242
 30
0.0
 10
-93.44394473787112
 20
18.89248991081541
 30
0.0
 10
-92.99406323926821
 20
18.70476738976887
 30
0.0
 10
-92.44138514783911
 20
18.51368113735365
 30
0.0
 10
-91.84936304770565
 20
18.36507090655275
 30
0.0
 10
-91.22439524324739
 20
18.25939596845997
 30
0.0
 10
-90.54652228896184
 20
18.18290294198152
 30
0.0
 10
-89.86375820402442
 20
18.16330820406418
 30
0.0
 10
-89.18391143383316
 20
18.20308469631309
 30
0.0
 10
-88.67596385775879
 20
18.25590431141501
 30
0.0
 10
-88.25391889067039
 20
18.31247529499915
 30
0.0
 10
-87.91651568318512
 20
18.36153357715561
 30
0.0
 10
-87.74781685843686
 20
18.38670019374858
 30
0.0
 10
-87.66345644527358
 20
18.399285143151
 30
0.0
  0
SPLINE
  5
81
330
1F
100
AcDbEntity
  8
0
  6
Continuous
 62
   144
370
    18
100
AcDbSpline
210
0.0
220
0.0
230
1.0
 70
     8
 71
     3
 72
    22
 73
    18
 74
     0
 42
0.000000001
 43
0.00000001
 40
0.0
 40
0.0
 40
0.0
 40
0.0
 40
0.0624965014906844
 40
0.1249937718411187
 40
0.1874926047206451
 40
0.2499912336707458
 40
0.3124882649905524
 40
0.3749873593068203
 40
0.4999821558078452
 40
0.6249731466045927
 40
0.6874929331599626
 40
0.7500090497574192
 40
0.8124948586913511
 40
0.8749683527675628
 40
0.937470248046906
 40
0.9687331372968531
 40
1.0
 40
1.0
 40
1.0
 40
1.0
 10
-87.66344777487113
 20
18.39928643661327
 30
0.0
 10
-87.36806353753846
 20
18.46075474983974
 30
0.0
 10
-86.77729142892491
 20
18.58369213250322
 30
0.0
 10
-85.89092890632642
 20
18.76716042041875
 30
0.0
 10
-85.0042403906799
 20
18.94910221769016
 30
0.0
 10
-84.11675213582679
 20
19.12711728686191
 30
0.0
 10
-83.22769722362605
 20
19.29722756590509
 30
0.0
 10
-82.03938482910925
 20
19.50825270217578
 30
0.0
 10
-80.54945155756211
 20
19.74546354550633
 30
0.0
 10
-79.05536528688936
 20
19.9551569680861
 30
0.0
 10
-77.85837745074045
 20
20.11074722280968
 30
0.0
 10
-76.95920601657457
 20
20.21616745876664
 30
0.0
 10
-76.05793939928758
 20
20.3006118204868
 30
0.0
 10
-75.1543539350446
 20
20.35387950886404
 30
0.0
 10
-74.40049542044878
 20
20.37972248031384
 30
0.0
 10
-73.7970787501887
 20
20.39501884876939
 30
0.0
 10
-73.49528098961282
 20
20.40175280911475
 30
0.0
 10
-73.34437252045527
 20
20.40512000324219
 30
0.0
  0
SPLINE
  5
82
330
1F
100
AcDbEntity
  8
0
  6
Continuous
 62
   144
370
    18
100
AcDbSpline
210
0.0
220
0.0
230
1.0
 70
     8
 71
     3
 72
    26
 73
    22
 74
     0
 42
0.000000001
 43
0.00000001
 40
0.0
 40
0.0
 40
0.0
 40
0.0
 40
0.0335838990617164
 40
0.0671015217111685
 40
0.1336784472502867
 40
0.1992413953127471
 40
0.2633750791923757
 40
0.3257858651312885
 40
0.3863614855708092
 40
0.4452448214460279
 40
0.502917114937388
 40
0.531580416848626
 40
0.5603090664151148
 40
0.6184524481145269
 40
0.6781172931317574
 40
0.73960259621723
 40
0.8028755994442556
 40
0.8676669885560445
 40
0.9335494617748137
 40
0.9667388165880517
 40
1.0
 40
1.0
 40
1.0
 40
1.0
 10
-73.3443713872638
 20
20.40512002853079
 30
0.0
 10
-73.27946222685064
 20
20.39997795085924
 30
0.0
 10
-73.1497720015223
 20
20.38970394319013
 30
0.0
 10
-72.89147384609345
 20
20.36839794382943
 30
0.0
 10
-72.57163650085172
 20
20.33888771320841
 30
0.0
 10
-72.19370232242848
 20
20.29388151633168
 30
0.0
 10
-71.8258465125292
 20
20.23457049138985
 30
0.0
 10
-71.47137115889484
 20
20.15611153381983
 30
0.0
 10
-71.13353746916755
 20
20.05354558012531
 30
0.0
 10
-70.81569017544422
 20
19.92178967038159
 30
0.0
 10
-70.5697481990022
 20
19.78286870905416
 30
0.0
 10
-70.3882426861856
 20
19.65284013772389
 30
0.0
 10
-70.21627673114087
 20
19.50901218291044
 30
0.0
 10
-70.0177969059134
 20
19.3045706915236
 30
0.0
 10
-69.80502745489984
 20
19.02898555599473
 30
0.0
 10
-69.61217589805773
 20
18.727468549294
 30
0.0
 10
-69.43509233397005
 20
18.40523211761982
 30
0.0
 10
-69.26972009724365
 20
18.06742465889646
 30
0.0
 10
-69.1387079722046
 20
17.77797123220569
 30
0.0
 10
-69.03549845256534
 20
17.54307910036657
 30
0.0
 10
-68.98410763654
 20
17.42493808193319
 30
0.0
 10
-68.95838445350546
 20
17.36580372143681
 30
0.0
  0
SPLINE
  5
83
330
1F
100
AcDbEntity
  8
0
  6
Continuous
 62
   144
370
    18
100
AcDbSpline
210
0.0
220
0.0
230
1.0
 70
     8
 71
     3
 72
    21
 73
    17
 74
     0
 42
0.000000001
 43
0.00000001
 40
0.0
 40
0.0
 40
0.0
 40
0.0
 40
0.0639618193895677
 40
0.1276950702953934
 40
0.19099340710565
 40
0.2536960663285268
 40
0.3157133082085755
 40
0.3770543966386263
 40
0.4378575835397792
 40
0.4984202513828329
 40
0.6202692132119377
 40
0.7445990914255177
 40
0.8077872201149259
 40
0.8715267931619854
 40
0.935660901496345
 40
1.0
 40
1.0
 40
1.0
 40
1.0
 10
-68.95838424396322
 20
17.36580323972809
 30
0.0
 10
-69.02948309983401
 20
17.30319341834768
 30
0.0
 10
-69.17142673878905
 20
17.17819751268621
 30
0.0
 10
-69.38572319080279
 20
16.99351087573092
 30
0.0
 10
-69.60253289605913
 20
16.81466273441246
 30
0.0
 10
-69.82312795298684
 20
16.64458122704205
 30
0.0
 10
-70.0487918123951
 20
16.48618828929435
 30
0.0
 10
-70.28084625184212
 20
16.34248654924641
 30
0.0
 10
-70.52055900627899
 20
16.21629253793552
 30
0.0
 10
-70.85286569277986
 20
16.07610884968619
 30
0.0
 10
-71.2917579551406
 20
15.95216278986221
 30
0.0
 10
-71.74491166603872
 20
15.88018170758807
 30
0.0
 10
-72.1151754917797
 20
15.84242850150587
 30
0.0
 10
-72.3974223375469
 20
15.82152848954691
 30
0.0
 10
-72.68168070408373
 20
15.80566266087298
 30
0.0
 10
-72.87176016625402
 20
15.79676803550091
 30
0.0
 10
-72.96695154149165
 20
15.79231362674089
 30
0.0
  0
SPLINE
  5
86
330
1F
100
AcDbEntity
  8
0
  6
Continuous
 62
   144
370
    18
100
AcDbSpline
210
0.0
220
0.0
230
1.0
 70
     8
 71
     3
 72
    48
 73
    44
 74
     0
 42
0.000000001
 43
0.00000001
 40
0.0
 40
0.0
 40
0.0
 40
0.0
 40
0.0156333025087011
 40
0.0312638483719984
 40
0.0625086712902205
 40
0.0937340221739887
 40
0.1093496772061714
 40
0.1249727859447566
 40
0.1301817989960589
 40
0.1406005655365355
 40
0.1562269825755315
 40
0.1718465254497545
 40
0.1874578872874127
 40
0.2030673399109742
 40
0.2186835007498513
 40
0.2499435046898391
 40
0.2812329338797917
 40
0.3125112666466136
 40
0.343761686579484
 40
0.3750035371786489
 40
0.4375073252876838
 40
0.4732407074710124
 40
0.500041441791503
 40
0.5313022349469866
 40
0.5625507030611814
 40
0.6250592271202124
 40
0.6875600151622516
 40
0.7031784426493262
 40
0.7187966212166979
 40
0.7500465143854664
 40
0.7813165349847496
 40
0.7969491225110428
 40
0.812575721989825
 40
0.8281983011209245
 40
0.843817460740166
 40
0.8594330829918592
 40
0.875045291309079
 40
0.8906554091119862
 40
0.9062661982169696
 40
0.9374968084142408
 40
0.9687431758902717
 40
0.9843709115902212
 40
1.0
 40
1.0
 40
1.0
 40
1.0
 10
-71.25337275094192
 20
14.82029783944559
 30
0.0
 10
-71.3150764310856
 20
14.70351313610256
 30
0.0
 10
-71.43847291106368
 20
14.4699643222513
 30
0.0
 10
-71.6868187917879
 20
14.00387197433352
 30
0.0
 10
-72.0032898418597
 20
13.42481525734747
 30
0.0
 10
-72.33569326916256
 20
12.85474682969435
 30
0.0
 10
-72.61630555683351
 20
12.40773885193227
 30
0.0
 10
-72.78455985528493
 20
12.14981763776973
 30
0.0
 10
-72.92990015365923
 20
11.92938657444632
 30
0.0
 10
-73.07578102304343
 20
11.70927889561022
 30
0.0
 10
-73.26996126349735
 20
11.41565994638398
 30
0.0
 10
-73.48498170141917
 20
11.08323768179491
 30
0.0
 10
-73.69367016520724
 20
10.74694205353109
 30
0.0
 10
-73.89256125966317
 20
10.4047610911544
 30
0.0
 10
-74.1435839790097
 20
9.940249386231365
 30
0.0
 10
-74.43315048263494
 20
9.346341636805173
 30
0.0
 10
-74.74662598090478
 20
8.617986527380634
 30
0.0
 10
-75.03233176223307
 20
7.878402965243937
 30
0.0
 10
-75.28520161195513
 20
7.127238274184355
 30
0.0
 10
-75.57029123362389
 20
6.109981320239455
 30
0.0
 10
-75.77461563930916
 20
5.032260436805362
 30
0.0
 10
-75.87285818459921
 20
3.97968458571717
 30
0.0
 10
-75.8992331192904
 20
3.187338013367331
 30
0.0
 10
-75.88398745819337
 20
2.432500231794364
 30
0.0
 10
-75.8030576890902
 20
1.378846841948965
 30
0.0
 10
-75.60110466219052
 20
0.0723207097781346
 30
0.0
 10
-75.3201443986357
 20
-1.084264882341855
 30
0.0
 10
-75.07909822552679
 20
-1.838774041957195
 30
0.0
 10
-74.90368683825112
 20
-2.336789932068017
 30
0.0
 10
-74.65967156120153
 20
-2.950514594090897
 30
0.0
 10
-74.38989968466986
 20
-3.553350565487754
 30
0.0
 10
-74.16257597800433
 20
-4.030254246166939
 30
0.0
 10
-73.98764589928705
 20
-4.385638953589968
 30
0.0
 10
-73.80997950057649
 20
-4.739529325249173
 30
0.0
 10
-73.63115085093737
 20
-5.092728196506864
 30
0.0
 10
-73.4527709498911
 20
-5.446056315203753
 30
0.0
 10
-73.27640220750813
 20
-5.800311130876852
 30
0.0
 10
-73.10376670182836
 20
-6.156362564112282
 30
0.0
 10
-72.88004736193345
 20
-6.634244622078553
 30
0.0
 10
-72.61036001134647
 20
-7.236405752183928
 30
0.0
 10
-72.34972071578048
 20
-7.842658502957846
 30
0.0
 10
-72.14387107583764
 20
-8.328964820962256
 30
0.0
 10
-72.04138523917358
 20
-8.572351326248818
 30
0.0
 10
-71.99014010318824
 20
-8.69404984544312
 30
0.0
  0
SPLINE
  5
8A
330
1F
100
AcDbEntity
  8
0
  6
Continuous
 62
   144
370
    18
100
AcDbSpline
210
0.0
220
0.0
230
1.0
 70
     8
 71
     3
 72
    39
 73
    35
 74
     0
 42
0.000000001
 43
0.00000001
 40
0.0
 40
0.0
 40
0.0
 40
0.0
 40
0.0157114035230797
 40
0.0314114407754304
 40
0.0470900421697416
 40
0.0627397445377364
 40
0.0939408983353147
 40
0.1095053102888516
 40
0.1250639273547129
 40
0.1562316603083006
 40
0.1875179775483404
 40
0.2188885573014366
 40
0.2345750427912441
 40
0.250241761655255
 40
0.312735940910338
 40
0.3439435481854247
 40
0.3751665909294735
 40
0.4376618292807788
 40
0.5001541076438455
 40
0.5626279738602206
 40
0.6251059057341065
 40
0.6563467991556973
 40
0.6875876630304134
 40
0.7188272728155899
 40
0.750064522479339
 40
0.812538004758169
 40
0.8437859074024283
 40
0.8750401061382699
 40
0.906280570908514
 40
0.9218948054641914
 40
0.9375081635781184
 40
0.9687456171780571
 40
0.9843715333004623
 40
0.9999999999999999
 40
0.9999999999999999
 40
0.9999999999999999
 40
0.9999999999999999
 10
-71.43898513312605
 20
-17.07869174552672
 30
0.0
 10
-71.51794266304367
 20
-17.18501024813076
 30
0.0
 10
-71.67580060177836
 20
-17.39757033819359
 30
0.0
 10
-71.91411753616781
 20
-17.71498527709771
 30
0.0
 10
-72.15544539990337
 20
-18.02947887667758
 30
0.0
 10
-72.48286840944587
 20
-18.44250340501191
 30
0.0
 10
-72.82280151656974
 20
-18.84441732183774
 30
0.0
 10
-73.18091273406804
 20
-19.22890891037666
 30
0.0
 10
-73.5531848079857
 20
-19.59934904591695
 30
0.0
 10
-74.04691752211251
 20
-20.03461542609213
 30
0.0
 10
-74.67160827109491
 20
-20.52013482622755
 30
0.0
 10
-75.21093048768786
 20
-20.90145596434939
 30
0.0
 10
-75.64915877563575
 20
-21.19722747894578
 30
0.0
 10
-76.30934202314427
 20
-21.63300423343205
 30
0.0
 10
-77.09157501331605
 20
-22.12142750295705
 30
0.0
 10
-78.00234540168695
 20
-22.6500252148936
 30
0.0
 10
-78.92462812402636
 20
-23.15831979099282
 30
0.0
 10
-80.09597956485386
 20
-23.76021085927194
 30
0.0
 10
-81.51916746270656
 20
-24.44691286401023
 30
0.0
 10
-82.95421045478588
 20
-25.10806025773626
 30
0.0
 10
-84.15670456296401
 20
-25.64409506860231
 30
0.0
 10
-85.12075548453352
 20
-26.06836230022107
 30
0.0
 10
-85.84433901051024
 20
-26.38535461619394
 30
0.0
 10
-86.56773344436475
 20
-26.70270308957455
 30
0.0
 10
-87.5310857309778
 20
-27.12835961036833
 30
0.0
 10
-88.49139974486272
 20
-27.561073659549
 30
0.0
 10
-89.44713370553637
 20
-28.00409695484089
 30
0.0
 10
-90.16076557985072
 20
-28.34337105540417
 30
0.0
 10
-90.7491088575906
 20
-28.63907009999127
 30
0.0
 10
-91.21358962798772
 20
-28.88712872058504
 30
0.0
 10
-91.67311836785574
 20
-29.1441936777972
 30
0.0
 10
-92.12658105070261
 20
-29.4120653327802
 30
0.0
 10
-92.57692704551911
 20
-29.68527044504051
 30
0.0
 10
-92.80162657313737
 20
-29.8227912628967
 30
0.0
 10
-92.91398550547625
 20
-29.89155728315707
 30
0.0
  0
SPLINE
  5
8B
330
1F
100
AcDbEntity
  8
0
  6
Continuous
 62
   144
370
    18
100
AcDbSpline
210
0.0
220
0.0
230
1.0
 70
     8
 71
     3
 72
    29
 73
    25
 74
     0
 42
0.000000001
 43
0.00000001
 40
0.0
 40
0.0
 40
0.0
 40
0.0
 40
0.0312859255754157
 40
0.0625498604502797
 40
0.0937786561985704
 40
0.1249769173721832
 40
0.1561756856851983
 40
0.1874104776282582
 40
0.2499521900943635
 40
0.3125263921266714
 40
0.3750521101696462
 40
0.4375465523447396
 40
0.5000707946279573
 40
0.5625980019296896
 40
0.6250919973261819
 40
0.6876090980744003
 40
0.7501300868510532
 40
0.8126235297895867
 40
0.8438510158345167
 40
0.8750609134211365
 40
0.9062738599705661
 40
0.937502090829037
 40
0.9687466925743023
 40
1.0
 40
1.0
 40
1.0
 40
1.0
 10
-92.91398640882184
 20
-29.89155783602319
 30
0.0
 10
-93.02260968430522
 20
-29.97151440156373
 30
0.0
 10
-93.23977988458462
 20
-30.1313713316261
 30
0.0
 10
-93.56304960945127
 20
-30.37418755422308
 30
0.0
 10
-93.88125503318818
 20
-30.62303154909428
 30
0.0
 10
-94.19190387263693
 20
-30.88086667097174
 30
0.0
 10
-94.49218196365808
 20
-31.150839956758
 30
0.0
 10
-94.87575633059545
 20
-31.52943629634127
 30
0.0
 10
-95.32323265752878
 20
-32.03479899787221
 30
0.0
 10
-95.80548116904744
 20
-32.6855041242583
 30
0.0
 10
-96.22896402469777
 20
-33.3758075758962
 30
0.0
 10
-96.58588977348516
 20
-34.10269139824503
 30
0.0
 10
-96.87090283637329
 20
-34.86061560483614
 30
0.0
 10
-97.08541844774555
 20
-35.64130575961237
 30
0.0
 10
-97.23029901475519
 20
-36.43769800684679
 30
0.0
 10
-97.31165539413429
 20
-37.24281908874114
 30
0.0
 10
-97.33588782226131
 20
-38.05154811771501
 30
0.0
 10
-97.31069457240149
 20
-38.72518914684752
 30
0.0
 10
-97.26435252898787
 20
-39.2618624061383
 30
0.0
 10
-97.21689295300848
 20
-39.66286295324286
 30
0.0
 10
-97.15936564572125
 20
-40.06251656989323
 30
0.0
 10
-97.0942753709646
 20
-40.46114602504154
 30
0.0
 10
-97.02415147582752
 20
-40.85908606096666
 30
0.0
 10
-96.9757267687327
 20
-41.12413577352838
 30
0.0
 10
-96.95151104251228
 20
-41.25667908993157
 30
0.0
  0
SPLINE
  5
8C
330
1F
100
AcDbEntity
  8
0
  6
Continuous
 62
   144
370
    18
100
AcDbSpline
210
0.0
220
0.0
230
1.0
 70
     8
 71
     3
 72
    31
 73
    27
 74
     0
 42
0.000000001
 43
0.00000001
 40
0.0
 40
0.0
 40
0.0
 40
0.0
 40
0.031251453880531
 40
0.0625009857983014
 40
0.0781250273463008
 40
0.0937490049709966
 40
0.12499820900702
 40
0.1406234959522744
 40
0.1562489540916003
 40
0.1874995709220262
 40
0.2499989742946567
 40
0.3124992615099225
 40
0.3749996160047879
 40
0.4375004321307541
 40
0.5000012383355906
 40
0.562501865742317
 40
0.6250024621992979
 40
0.6875025073173214
 40
0.7500021719760745
 40
0.8125017497572576
 40
0.8437518743308536
 40
0.8750016831365715
 40
0.9062508600857648
 40
0.9374999568191525
 40
0.9687497087720682
 40
1.0
 40
1.0
 40
1.0
 40
1.0
 10
-96.95150794755479
 20
-41.25669603001521
 30
0.0
 10
-96.89677381548786
 20
-41.51381461666275
 30
0.0
 10
-96.78730891750016
 20
-42.02803597717834
 30
0.0
 10
-96.64736152649222
 20
-42.67013791889339
 30
0.0
 10
-96.53170782687728
 20
-43.18297617856005
 30
0.0
 10
-96.4128695289442
 20
-43.69508329334747
 30
0.0
 10
-96.29026014812446
 20
-44.20631294718765
 30
0.0
 10
-96.16647410399756
 20
-44.71726642136407
 30
0.0
 10
-96.04267828645449
 20
-45.22823058748034
 30
0.0
 10
-95.82878375230723
 20
-46.1230651218636
 30
0.0
 10
-95.53530684045835
 20
-47.40426886402936
 30
0.0
 10
-95.20747572936388
 20
-48.94711128211274
 30
0.0
 10
-94.90987318018567
 20
-50.49611526855324
 30
0.0
 10
-94.64586435117661
 20
-52.05121313972253
 30
0.0
 10
-94.416020848031
 20
-53.6117278349722
 30
0.0
 10
-94.21997659737848
 20
-55.17683796459806
 30
0.0
 10
-94.05600718247334
 20
-56.74561014379806
 30
0.0
 10
-93.92109870229625
 20
-58.31711324993001
 30
0.0
 10
-93.80964790360504
 20
-59.89041212799976
 30
0.0
 10
-93.73038003603779
 20
-61.20236484018437
 30
0.0
 10
-93.67090708931656
 20
-62.2521472277411
 30
0.0
 10
-93.62603763447869
 20
-63.03946511527647
 30
0.0
 10
-93.57853517876478
 20
-63.82662364385867
 30
0.0
 10
-93.52591300173593
 20
-64.61345697723891
 30
0.0
 10
-93.46976021691907
 20
-65.40005193557339
 30
0.0
 10
-93.43116516018874
 20
-65.92436897760177
 30
0.0
 10
-93.41186746531687
 20
-66.18652976062306
 30
0.0
  0
SPLINE
  5
8E
330
1F
100
AcDbEntity
  8
0
  6
Continuous
 62
   144
370
    18
100
AcDbSpline
210
0.0
220
0.0
230
1.0
 70
     8
 71
     3
 72
    20
 73
    16
 74
     0
 42
0.000000001
 43
0.00000001
 40
0.0
 40
0.0
 40
0.0
 40
0.0
 40
0.0312528078735175
 40
0.0625041961877538
 40
0.0937535959922725
 40
0.1250021397910848
 40
0.2500018821286604
 40
0.3750015108379277
 40
0.5000012929958987
 40
0.6250008265219441
 40
0.7500003416087723
 40
0.812499853488059
 40
0.8437501215502089
 40
0.8750005945196846
 40
1.0
 40
1.0
 40
1.0
 40
1.0
 10
-95.92852240852012
 20
-66.37992494532433
 30
0.0
 10
-96.14527107865376
 20
-66.39459802467283
 30
0.0
 10
-96.57875857380292
 20
-66.42394351689188
 30
0.0
 10
-97.2291023883502
 20
-66.46600049151988
 30
0.0
 10
-97.87966331599527
 20
-66.50414395429233
 30
0.0
 10
-99.18141746638429
 20
-66.56861904953738
 30
0.0
 10
-101.1368036747786
 20
-66.60718987805396
 30
0.0
 10
-103.7436734383972
 20
-66.5418929723043
 30
0.0
 10
-106.3437201510275
 20
-66.33856656351712
 30
0.0
 10
-108.9296095821621
 20
-66.00268867366115
 30
0.0
 10
-111.0710884033952
 20
-65.63555871156129
 30
0.0
 10
-112.563444131599
 20
-65.34389290796236
 30
0.0
 10
-113.4152215227673
 20
-65.17222903338457
 30
0.0
 10
-114.6923888878033
 20
-64.91228537256171
 30
0.0
 10
-115.7567851398331
 20
-64.6961179750596
 30
0.0
 10
-116.6082987539185
 20
-64.52318474503042
 30
0.0
  0
SPLINE
  5
91
330
1F
100
AcDbEntity
  8
0
  6
Continuous
 62
   144
370
    18
100
AcDbSpline
210
0.0
220
0.0
230
1.0
 70
     8
 71
     3
 72
    30
 73
    26
 74
     0
 42
0.000000001
 43
0.00000001
 40
0.0
 40
0.0
 40
0.0
 40
0.0
 40
0.0156422916945389
 40
0.0312813880585611
 40
0.0625390649587015
 40
0.09376068716487
 40
0.1249565873376547
 40
0.1873931427963431
 40
0.2499508657005715
 40
0.2812401585858178
 40
0.312510518194364
 40
0.3749997117782643
 40
0.4374878735794717
 40
0.5000072277556474
 40
0.6249164466268765
 40
0.6874409171418149
 40
0.7500431108711825
 40
0.8125819776124852
 40
0.8437991715952056
 40
0.8749849423844737
 40
0.9061820891302699
 40
0.9374189906285046
 40
0.9686972398371575
 40
0.9843472697254931
 40
1.0
 40
1.0
 40
1.0
 40
1.0
 10
-116.044948695891
 20
-67.87131391828078
 30
0.0
 10
-116.060840879597
 20
-67.98265258088985
 30
0.0
 10
-116.0926220006319
 20
-68.20530716239291
 30
0.0
 10
-116.1549381323288
 20
-68.65061952319165
 30
0.0
 10
-116.228221222098
 20
-69.20750852880357
 30
0.0
 10
-116.3013464970287
 20
-69.8771289060224
 30
0.0
 10
-116.3695948511953
 20
-70.77243451497836
 30
0.0
 10
-116.3785016061562
 20
-71.89696606708846
 30
0.0
 10
-116.2963282495544
 20
-73.0186787302898
 30
0.0
 10
-116.1847937907163
 20
-73.91145726841732
 30
0.0
 10
-116.0438248534181
 20
-74.79957557988686
 30
0.0
 10
-115.8107834756888
 20
-75.89956458714222
 30
0.0
 10
-115.4359981014616
 20
-77.19583443962416
 30
0.0
 10
-114.8106483316955
 20
-78.88173102522106
 30
0.0
 10
-114.0026976818694
 20
-80.49524003775784
 30
0.0
 10
-113.0329389471258
 20
-82.01015382731276
 30
0.0
 10
-112.2310237250688
 20
-83.09667545267473
 30
0.0
 10
-111.4968361304846
 20
-83.94979084313528
 30
0.0
 10
-110.8677862087191
 20
-84.591502653525
 30
0.0
 10
-110.3743831856445
 20
-85.04950589857876
 30
0.0
 10
-109.8632176063365
 20
-85.48765243662139
 30
0.0
 10
-109.3390266402404
 20
-85.91108815926906
 30
0.0
 10
-108.8950289787308
 20
-86.25566606494256
 30
0.0
 10
-108.537569589126
 20
-86.5289435361372
 30
0.0
 10
-108.3584383567415
 20
-86.66520149253347
 30
0.0
 10
-108.2688650140182
 20
-86.73333634799451
 30
0.0
  0
SPLINE
  5
92
330
1F
100
AcDbEntity
  8
0
  6
Continuous
 62
   144
370
    18
100
AcDbSpline
210
0.0
220
0.0
230
1.0
 70
     8
 71
     3
 72
    15
 73
    11
 74
     0
 42
0.000000001
 43
0.00000001
 40
0.0
 40
0.0
 40
0.0
 40
0.0
 40
0.1250158309064743
 40
0.2500233580657455
 40
0.3750176493967136
 40
0.5000005186010286
 40
0.6249832067483047
 40
0.7499771828600287
 40
0.8749844171897243
 40
0.9999999999999999
 40
0.9999999999999999
 40
0.9999999999999999
 40
0.9999999999999999
 10
-108.2688543199471
 20
-86.73334448255171
 30
0.0
 10
-108.0361362074103
 20
-86.8970604098127
 30
0.0
 10
-107.5707154398381
 20
-87.22448139006653
 30
0.0
 10
-106.8740893269751
 20
-87.7176815864096
 30
0.0
 10
-106.1804929228363
 20
-88.21501220360786
 30
0.0
 10
-105.4914289061225
 20
-88.71852578916739
 30
0.0
 10
-104.8084857281134
 20
-89.23030989940008
 30
0.0
 10
-104.1301940815159
 20
-89.74831710796582
 30
0.0
 10
-103.454994165362
 20
-90.27046284136499
 30
0.0
 10
-103.005897805606
 20
-90.61993680891159
 30
0.0
 10
-102.7813421278679
 20
-90.79467962730564
 30
0.0
  0
SPLINE
  5
95
330
1F
100
AcDbEntity
  8
0
  6
Continuous
 62
   144
370
    18
100
AcDbSpline
210
0.0
220
0.0
230
1.0
 70
     8
 71
     3
 72
    23
 73
    19
 74
     0
 42
0.000000001
 43
0.00000001
 40
0.0
 40
0.0
 40
0.0
 40
0.0
 40
0.0662800772503416
 40
0.1320764373991212
 40
0.1969416946757111
 40
0.2605050656522486
 40
0.3225204682627478
 40
0.3829256759643975
 40
0.4419131176617229
 40
0.500006084333071
 40
0.5580983952413323
 40
0.6170843407821167
 40
0.6774877061441733
 40
0.7395012317183153
 40
0.803062851894962
 40
0.8679265355449308
 40
0.9337214765797794
 40
1.0
 40
1.0
 40
1.0
 40
1.0
 10
-101.827561574536
 20
-91.50489733171683
 30
0.0
 10
-101.7540553784101
 20
-91.58752396292537
 30
0.0
 10
-101.607579440031
 20
-91.75217420983283
 30
0.0
 10
-101.3924352313109
 20
-92.00058278343845
 30
0.0
 10
-101.1869652062478
 20
-92.2512703598096
 30
0.0
 10
-100.9960068728384
 20
-92.50541902145662
 30
0.0
 10
-100.8244136479769
 20
-92.76426421953397
 30
0.0
 10
-100.6770916093714
 20
-93.0291241198488
 30
0.0
 10
-100.559069635448
 20
-93.30135565176636
 30
0.0
 10
-100.4755949712647
 20
-93.58238259658037
 30
0.0
 10
-100.4322457123089
 20
-93.8723201150805
 30
0.0
 10
-100.423931955002
 20
-94.16891138793004
 30
0.0
 10
-100.44529181656
 20
-94.47122438122311
 30
0.0
 10
-100.4911941883007
 20
-94.77836029853592
 30
0.0
 10
-100.556634502051
 20
-95.08943700995081
 30
0.0
 10
-100.6366913427221
 20
-95.40351978184054
 30
0.0
 10
-100.7264801376336
 20
-95.71963185629558
 30
0.0
 10
-100.7895046580374
 20
-95.93079678713144
 30
0.0
 10
-100.8211322992814
 20
-96.03676583906535
 30
0.0
  0
SPLINE
  5
98
330
1F
100
AcDbEntity
  8
0
  6
Continuous
 62
   144
370
    18
100
AcDbSpline
210
0.0
220
0.0
230
1.0
 70
     8
 71
     3
 72
    20
 73
    16
 74
     0
 42
0.000000001
 43
0.00000001
 40
0.0
 40
0.0
 40
0.0
 40
0.0
 40
0.1249998776221906
 40
0.1562498552856821
 40
0.1874998328344601
 40
0.2499997627979708
 40
0.3749996330519918
 40
0.4374996848843865
 40
0.4999996967247476
 40
0.6249995806295645
 40
0.7499994996616713
 40
0.8124995407939316
 40
0.8750000827138652
 40
0.9375001823836195
 40
1.0
 40
1.0
 40
1.0
 40
1.0
 10
-103.3377962371912
 20
-97.69058655496889
 30
0.0
 10
-104.0398306477675
 20
-97.07503242660455
 30
0.0
 10
-104.9173737073669
 20
-96.30558972548339
 30
0.0
 10
-105.9697161324448
 20
-95.38145025210231
 30
0.0
 10
-106.6712551768196
 20
-94.76533165553361
 30
0.0
 10
-107.899356402992
 20
-93.68758864369482
 30
0.0
 10
-109.3061369969207
 20
-92.45957146853937
 30
0.0
 10
-110.7167166844129
 20
-91.23592292591987
 30
0.0
 10
-112.1313567535253
 20
-90.01697202659066
 30
0.0
 10
-113.9103766082958
 20
-88.50572765605257
 30
0.0
 10
-115.7129904561695
 20
-87.02257596902825
 30
0.0
 10
-117.171976492486
 20
-85.85703013008872
 30
0.0
 10
-118.2726296974263
 20
-84.99096856019295
 30
0.0
 10
-119.3773776566472
 20
-84.13014884580062
 30
0.0
 10
-120.1152378871139
 20
-83.5580281527583
 30
0.0
 10
-120.4841671698829
 20
-83.27196845171188
 30
0.0
  0
SPLINE
  5
99
330
1F
100
AcDbEntity
  8
0
  6
Continuous
 62
   144
370
    18
100
AcDbSpline
210
0.0
220
0.0
230
1.0
 70
     8
 71
     3
 72
    21
 73
    17
 74
     0
 42
0.000000001
 43
0.00000001
 40
0.0
 40
0.0
 40
0.0
 40
0.0
 40
0.0642123346403986
 40
0.1282037035237235
 40
0.1917720530882064
 40
0.2547540926515948
 40
0.3170468940818156
 40
0.3786317185126694
 40
0.5000891214518703
 40
0.621514363122933
 40
0.6830725710577054
 40
0.7453378479784982
 40
0.8082938615634829
 40
0.871838560375326
 40
0.9358084379885869
 40
1.0
 40
1.0
 40
1.0
 40
1.0
 10
-120.4841683740832
 20
-83.27196751800044
 30
0.0
 10
-120.5523140695128
 20
-83.20571340647253
 30
0.0
 10
-120.6883709592395
 20
-83.07343317528145
 30
0.0
 10
-120.8899415789718
 20
-82.8735664664641
 30
0.0
 10
-121.0862494420507
 20
-82.67102716091831
 30
0.0
 10
-121.2746542566823
 20
-82.46447861506161
 30
0.0
 10
-121.4525360586232
 20
-82.25252244106805
 30
0.0
 10
-121.671036801485
 20
-81.96238190306767
 30
0.0
 10
-121.9071251713057
 20
-81.5760459492883
 30
0.0
 10
-122.0704631373082
 20
-81.15378678018371
 30
0.0
 10
-122.1676045477386
 20
-80.80393162600039
 30
0.0
 10
-122.2273401157252
 20
-80.5338685197017
 30
0.0
 10
-122.2762726894502
 20
-80.25873019732643
 30
0.0
 10
-122.3171393131274
 20
-79.97975044026364
 30
0.0
 10
-122.3526311574613
 20
-79.69821452435839
 30
0.0
 10
-122.3744902483522
 20
-79.50977891303825
 30
0.0
 10
-122.3854386989357
 20
-79.41539813622552
 30
0.0
  0
SPLINE
  5
9A
330
1F
100
AcDbEntity
  8
0
  6
Continuous
 62
   144
370
    18
100
AcDbSpline
210
0.0
220
0.0
230
1.0
 70
     8
 71
     3
 72
    21
 73
    17
 74
     0
 42
0.000000001
 43
0.00000001
 40
0.0
 40
0.0
 40
0.0
 40
0.0
 40
0.2499929866738182
 40
0.3749907433098709
 40
0.4999754441816788
 40
0.5624704163417811
 40
0.6249779362247194
 40
0.656238476973265
 40
0.6875005568827937
 40
0.7500128819288399
 40
0.8124969607935282
 40
0.8437334408483254
 40
0.8749731461771452
 40
0.9374740131009246
 40
0.9687351918756198
 40
1.0
 40
1.0
 40
1.0
 40
1.0
 10
-122.3854389698925
 20
-79.4153958004871
 30
0.0
 10
-122.2768447072812
 20
-78.32004973981375
 30
0.0
 10
-122.1139527646006
 20
-76.6770251136495
 30
0.0
 10
-121.89623510772
 20
-74.48643192551573
 30
0.0
 10
-121.7616527348303
 20
-73.11719558019898
 30
0.0
 10
-121.6546196056034
 20
-72.02172146679682
 30
0.0
 10
-121.5877813821265
 20
-71.33695154596342
 30
0.0
 10
-121.5341307482675
 20
-70.78906577952864
 30
0.0
 10
-121.4815014621336
 20
-70.24105975266187
 30
0.0
 10
-121.4204290862229
 20
-69.55575538261536
 30
0.0
 10
-121.3724842862186
 20
-68.86945407560947
 30
0.0
 10
-121.3465868915085
 20
-68.31984399230124
 30
0.0
 10
-121.3286657844766
 20
-67.76984808240677
 30
0.0
 10
-121.3199986358097
 20
-67.21950328505419
 30
0.0
 10
-121.3160064657345
 20
-66.66902767018213
 30
0.0
 10
-121.3147842034188
 20
-66.39372890005329
 30
0.0
 10
-121.3141730367875
 20
-66.25607152506694
 30
0.0
  0
SPLINE
  5
9B
330
1F
100
AcDbEntity
  8
0
  6
Continuous
 62
   144
370
    18
100
AcDbSpline
210
0.0
220
0.0
230
1.0
 70
     8
 71
     3
 72
    31
 73
    27
 74
     0
 42
0.000000001
 43
0.00000001
 40
0.0
 40
0.0
 40
0.0
 40
0.0
 40
0.0312522436382223
 40
0.0625020816232878
 40
0.0937490538879752
 40
0.1249961565111638
 40
0.1562460756839549
 40
0.1874978263230686
 40
0.2499973925256876
 40
0.2812457220248128
 40
0.3124942778426322
 40
0.3437432645813805
 40
0.3749924628193054
 40
0.4374910798566975
 40
0.4999894635405068
 40
0.5624885536177399
 40
0.6249890636068397
 40
0.6874891747321628
 40
0.7499879828700992
 40
0.8124941595575178
 40
0.8750005776427278
 40
0.9062472919742183
 40
0.9374930089650598
 40
0.9687441392944668
 40
0.9843717411521145
 40
1.0
 40
1.0
 40
1.0
 40
1.0
 10
-121.3141730367875
 20
-66.25607152506694
 30
0.0
 10
-121.565990877186
 20
-66.19990074414736
 30
0.0
 10
-122.0696071742103
 20
-66.08756350607514
 30
0.0
 10
-122.8242240137685
 20
-65.91560950292765
 30
0.0
 10
-123.5772310217215
 20
-65.73685627830599
 30
0.0
 10
-124.327668508485
 20
-65.54759001376148
 30
0.0
 10
-125.0760513156899
 20
-65.35025330607006
 30
0.0
 10
-126.0720328142493
 20
-65.0801170728312
 30
0.0
 10
-127.0668147726113
 20
-64.805648671628
 30
0.0
 10
-128.0610388828922
 20
-64.52927610186981
 30
0.0
 10
-128.8065048105447
 20
-64.32131553886757
 30
0.0
 10
-129.5520131717519
 20
-64.11347987785773
 30
0.0
 10
-130.5464494593701
 20
-63.83786058766633
 30
0.0
 10
-131.7909858539822
 20
-63.49870509331834
 30
0.0
 10
-133.2884810132474
 20
-63.10678592776586
 30
0.0
 10
-134.7913937042358
 20
-62.73598890605082
 30
0.0
 10
-136.3009284698988
 20
-62.39290742624541
 30
0.0
 10
-137.8177884237368
 20
-62.08359159539231
 30
0.0
 10
-139.3423286308446
 20
-61.81416379944139
 30
0.0
 10
-140.8737836980546
 20
-61.58700095326314
 30
0.0
 10
-142.1553015549155
 20
-61.43661212157463
 30
0.0
 10
-143.1834311045557
 20
-61.34714830272467
 30
0.0
 10
-143.9556767353701
 20
-61.2958096057604
 30
0.0
 10
-144.5997311200782
 20
-61.26139352451428
 30
0.0
 10
-145.1151603511701
 20
-61.23642616006373
 30
0.0
 10
-145.3729145750433
 20
-61.2243637684326
 30
0.0
 10
-145.501794395944
 20
-61.21833244584282
 30
0.0
  0
LINE
  5
9C
330
1F
100
AcDbEntity
  8
0
  6
Continuous
 62
   144
370
    18
100
AcDbLine
 10
-133.9458817704
 20
62.3027355121
 30
0.0
 11
-132.1551613773
 21
61.3608156454
 31
0.0
  0
LINE
  5
9D
330
1F
100
AcDbEntity
  8
0
  6
Continuous
 62
   144
370
    18
100
AcDbLine
 10
-97.6699661668
 20
49.692036101
 30
0.0
 11
-96.627206249
 21
49.0702442038
 31
0.0
  0
LINE
  5
9E
330
1F
100
AcDbEntity
  8
0
  6
Continuous
 62
   144
370
    18
100
AcDbLine
 10
-96.6272044877
 20
49.0702431536
 30
0.0
 11
-95.9898640032
 21
48.4346858713
 31
0.0
  0
LINE
  5
9F
330
1F
100
AcDbEntity
  8
0
  6
Continuous
 62
   144
370
    18
100
AcDbLine
 10
-95.9898635033
 20
48.4346853728
 30
0.0
 11
-93.9032043301
 21
48.4410230435
 31
0.0
  0
LINE
  5
A0
330
1F
100
AcDbEntity
  8
0
  6
Continuous
 62
   144
370
    18
100
AcDbLine
 10
-72.9669524413
 20
15.7923135846
 30
0.0
 11
-73.004800095
 21
15.7644153923
 31
0.0
  0
LINE
  5
A1
330
1F
100
AcDbEntity
  8
0
  6
Continuous
 62
   144
370
    18
100
AcDbLine
 10
-73.0048005401
 20
15.7644150642
 30
0.0
 11
-71.2533727509
 21
14.8202978394
 31
0.0
  0
LINE
  5
A2
330
1F
100
AcDbEntity
  8
0
  6
Continuous
 62
   144
370
    18
100
AcDbLine
 10
-71.9901394021
 20
-8.6940515105
 30
0.0
 11
-71.5455147449
 21
-12.4402636876
 31
0.0
  0
LINE
  5
A3
330
1F
100
AcDbEntity
  8
0
  6
Continuous
 62
   144
370
    18
100
AcDbLine
 10
-71.5455146698
 20
-12.4402643199
 30
0.0
 11
-69.6766572983
 21
-13.5853352236
 31
0.0
  0
LINE
  5
A4
330
1F
100
AcDbEntity
  8
0
  6
Continuous
 62
   144
370
    18
100
AcDbLine
 10
-69.6766568705
 20
-13.5853354858
 30
0.0
 11
-71.4389838139
 21
-17.0786891306
 31
0.0
  0
LINE
  5
A5
330
1F
100
AcDbEntity
  8
0
  6
Continuous
 62
   144
370
    18
100
AcDbLine
 10
-93.4118674286
 20
-66.1865302593
 30
0.0
 11
-95.9285224085
 21
-66.3799249453
 31
0.0
  0
LINE
  5
A6
330
1F
100
AcDbEntity
  8
0
  6
Continuous
 62
   144
370
    18
100
AcDbLine
 10
-116.6082992441
 20
-64.5231846455
 30
0.0
 11
-117.124975315
 21
-67.5294599586
 31
0.0
  0
LINE
  5
A7
330
1F
100
AcDbEntity
  8
0
  6
Continuous
 62
   144
370
    18
100
AcDbLine
 10
-117.1249754005
 20
-67.529460456
 30
0.0
 11
-116.0449491791
 21
-67.8713137653
 31
0.0
  0
LINE
  5
A8
330
1F
100
AcDbEntity
  8
0
  6
Continuous
 62
   144
370
    18
100
AcDbLine
 10
-102.7813421279
 20
-90.7946796273
 30
0.0
 11
-102.1740485534
 21
-91.2780701667
 31
0.0
  0
LINE
  5
A9
330
1F
100
AcDbEntity
  8
0
  6
Continuous
 62
   144
370
    18
100
AcDbLine
 10
-102.1740443249
 20
-91.2780735326
 30
0.0
 11
-101.8275621738
 21
-91.5048969394
 31
0.0
  0
LINE
  5
AA
330
1F
100
AcDbEntity
  8
0
  6
Continuous
 62
   144
370
    18
100
AcDbLine
 10
-100.8211326175
 20
-96.0367669053
 30
0.0
 11
-100.8954788981
 21
-96.115606536
 31
0.0
  0
LINE
  5
AB
330
1F
100
AcDbEntity
  8
0
  6
Continuous
 62
   144
370
    18
100
AcDbLine
 10
-100.8954803298
 20
-96.1156080542
 30
0.0
 11
-103.3377958002
 21
-97.6905862732
 31
0.0
  0
MTEXT
  5
AD
330
1F
100
AcDbEntity
  8
0
  6
Continuous
 62
     7
100
AcDbMText
 10
-146.0785750377
 20
-98.7101529467
 30
0.0
 40
4.83362
 41
0.0
 71
     1
 72
     1
  1
SOLIDWORKS Educational Product.
  7
SLDTEXTSTYLE0
 73
     1
 44
1.0
  0
MTEXT
  5
AE
330
1F
100
AcDbEntity
  8
0
  6
Continuous
 62
     7
100
AcDbMText
 10
-146.0785750377
 20
-105.9605829467
 30
0.0
 40
4.83362
 41
0.0
 71
     1
 72
     1
  1
For Instructional Use Only.
  7
SLDTEXTSTYLE0
 73
     1
 44
1.0
  0
ENDSEC
  0
SECTION
  2
OBJECTS
  0
DICTIONARY
  5
C
330
0
100
AcDbDictionary
281
     1
  3
ACAD_GROUP
350
D
  3
ACAD_LAYOUT
350
1A
  3
ACAD_MLINESTYLE
350
17
  3
ACAD_PLOTSETTINGS
350
19
  3
ACAD_PLOTSTYLENAME
350
E
  3
ACAD_SCALELIST
350
47
  0
DICTIONARY
  5
D
102
{ACAD_REACTORS
330
C
102
}
330
C
100
AcDbDictionary
281
     1
  0
DICTIONARY
  5
1A
102
{ACAD_REACTORS
330
C
102
}
330
C
100
AcDbDictionary
281
     1
  3
Layout1
350
1E
  3
Layout2
350
26
  3
Model
350
22
  0
DICTIONARY
  5
17
102
{ACAD_REACTORS
330
C
102
}
330
C
100
AcDbDictionary
281
     1
  3
Standard
350
18
  0
DICTIONARY
  5
19
102
{ACAD_REACTORS
330
C
102
}
330
C
100
AcDbDictionary
281
     1
  0
ACDBDICTIONARYWDFLT
  5
E
102
{ACAD_REACTORS
330
C
102
}
330
C
100
AcDbDictionary
281
     1
  3
Normal
350
F
100
AcDbDictionaryWithDefault
340
F
  0
DICTIONARY
  5
47
102
{ACAD_REACTORS
330
C
102
}
330
C
100
AcDbDictionary
281
     1
  3
A0
350
48
  3
A1
350
49
  3
A2
350
4A
  3
A3
350
4B
  3
A4
350
4C
  3
A5
350
4D
  3
A6
350
4E
  3
A7
350
4F
  3
A8
350
50
  3
A9
350
51
  3
B0
350
52
  3
B1
350
53
  3
B2
350
54
  3
B3
350
55
  3
B4
350
56
  3
B5
350
57
  3
B6
350
58
  3
B7
350
59
  3
B8
350
5A
  3
B9
350
5B
  3
C0
350
5C
  3
C1
350
5D
  3
C2
350
5E
  3
C3
350
5F
  3
C4
350
60
  3
C5
350
61
  3
C6
350
62
  3
C7
350
63
  3
C8
350
64
  3
C9
350
65
  3
D0
350
66
  3
D1
350
67
  3
D2
350
68
  0
LAYOUT
  5
1E
102
{ACAD_REACTORS
330
1A
102
}
330
1A
100
AcDbPlotSettings
  1

  2
none_device
  4

  6

 40
0.0
 41
0.0
 42
0.0
 43
0.0
 44
0.0
 45
0.0
 46
0.0
 47
0.0
 48
0.0
 49
0.0
140
0.0
141
0.0
142
1.0
143
1.0
 70
   688
 72
     1
 73
     0
 74
     5
  7

 75
    16
147
1.0
148
0.0
149
0.0
100
AcDbLayout
  1
Layout1
 70
     1
 71
     1
 10
0.0
 20
0.0
 11
420.0
 21
297.0
 12
0.0
 22
0.0
 32
0.0
 14
1.0000000000E+20
 24
1.0000000000E+20
 34
1.0000000000E+20
 15
-1.0000000000E+20
 25
-1.0000000000E+20
 35
-1.0000000000E+20
146
0.0
 13
0.0
 23
0.0
 33
0.0
 16
1.0
 26
0.0
 36
0.0
 17
0.0
 27
1.0
 37
0.0
 76
     0
330
1B
  0
LAYOUT
  5
26
102
{ACAD_REACTORS
330
1A
102
}
330
1A
100
AcDbPlotSettings
  1

  2
none_device
  4

  6

 40
0.0
 41
0.0
 42
0.0
 43
0.0
 44
0.0
 45
0.0
 46
0.0
 47
0.0
 48
0.0
 49
0.0
140
0.0
141
0.0
142
1.0
143
1.0
 70
   688
 72
     1
 73
     0
 74
     5
  7

 75
    16
147
1.0
148
0.0
149
0.0
100
AcDbLayout
  1
Layout2
 70
     1
 71
     2
 10
0.0
 20
0.0
 11
0.0
 21
0.0
 12
0.0
 22
0.0
 32
0.0
 14
0.0
 24
0.0
 34
0.0
 15
0.0
 25
0.0
 35
0.0
146
0.0
 13
0.0
 23
0.0
 33
0.0
 16
1.0
 26
0.0
 36
0.0
 17
0.0
 27
1.0
 37
0.0
 76
     0
330
23
  0
LAYOUT
  5
22
102
{ACAD_REACTORS
330
1A
102
}
330
1A
100
AcDbPlotSettings
  1

  2
none_device
  4
ANSI_A_(11.00_x_8.50_Inches)
  6

 40
6.35
 41
19.05
 42
6.35000508
 43
19.05000254
 44
279.4
 45
215.9
 46
274.1073603402
 47
109.9207169432
 48
0.0
 49
0.0
140
0.0
141
0.0
142
0.0515411721
143
1.0
 70
  1696
 72
     0
 73
     0
 74
     0
  7

 75
     0
147
0.0179189148
148
-1300.4909072572
149
0.0
100
AcDbLayout
  1
Model
 70
     1
 71
     0
 10
0.0
 20
0.0
 11
420.0
 21
297.0
 12
0.0
 22
0.0
 32
0.0
 14
-146.0785750377
 24
-97.690586555
 34
0.0
 15
-68.958384244
 25
65.5769462169
 35
0.0
146
0.0
 13
0.0
 23
0.0
 33
0.0
 16
1.0
 26
0.0
 36
0.0
 17
0.0
 27
1.0
 37
0.0
 76
     0
330
1F
331
29
  0
MLINESTYLE
  5
18
102
{ACAD_REACTORS
330
17
102
}
330
17
100
AcDbMlineStyle
  2
Standard
 70
     0
  3

 62
   256
 51
90.0
 52
90.0
 71
     2
 49
0.5
 62
   256
  6
BYLAYER
 49
-0.5
 62
   256
  6
BYLAYER
  0
ACDBPLACEHOLDER
  5
F
102
{ACAD_REACTORS
330
E
102
}
330
E
  0
SCALE
  5
48
102
{ACAD_REACTORS
330
47
102
}
330
47
100
AcDbScale
 70
     0
300
1:1
140
1.0
141
1.0
290
     1
  0
SCALE
  5
49
102
{ACAD_REACTORS
330
47
102
}
330
47
100
AcDbScale
 70
     0
300
1:2
140
1.0
141
2.0
290
     0
  0
SCALE
  5
4A
102
{ACAD_REACTORS
330
47
102
}
330
47
100
AcDbScale
 70
     0
300
1:4
140
1.0
141
4.0
290
     0
  0
SCALE
  5
4B
102
{ACAD_REACTORS
330
47
102
}
330
47
100
AcDbScale
 70
     0
300
1:5
140
1.0
141
5.0
290
     0
  0
SCALE
  5
4C
102
{ACAD_REACTORS
330
47
102
}
330
47
100
AcDbScale
 70
     0
300
1:8
140
1.0
141
8.0
290
     0
  0
SCALE
  5
4D
102
{ACAD_REACTORS
330
47
102
}
330
47
100
AcDbScale
 70
     0
300
1:10
140
1.0
141
10.0
290
     0
  0
SCALE
  5
4E
102
{ACAD_REACTORS
330
47
102
}
330
47
100
AcDbScale
 70
     0
300
1:16
140
1.0
141
16.0
290
     0
  0
SCALE
  5
4F
102
{ACAD_REACTORS
330
47
102
}
330
47
100
AcDbScale
 70
     0
300
1:20
140
1.0
141
20.0
290
     0
  0
SCALE
  5
50
102
{ACAD_REACTORS
330
47
102
}
330
47
100
AcDbScale
 70
     0
300
1:30
140
1.0
141
30.0
290
     0
  0
SCALE
  5
51
102
{ACAD_REACTORS
330
47
102
}
330
47
100
AcDbScale
 70
     0
300
1:40
140
1.0
141
40.0
290
     0
  0
SCALE
  5
52
102
{ACAD_REACTORS
330
47
102
}
330
47
100
AcDbScale
 70
     0
300
1:50
140
1.0
141
50.0
290
     0
  0
SCALE
  5
53
102
{ACAD_REACTORS
330
47
102
}
330
47
100
AcDbScale
 70
     0
300
1:100
140
1.0
141
100.0
290
     0
  0
SCALE
  5
54
102
{ACAD_REACTORS
330
47
102
}
330
47
100
AcDbScale
 70
     0
300
2:1
140
2.0
141
1.0
290
     0
  0
SCALE
  5
55
102
{ACAD_REACTORS
330
47
102
}
330
47
100
AcDbScale
 70
     0
300
4:1
140
4.0
141
1.0
290
     0
  0
SCALE
  5
56
102
{ACAD_REACTORS
330
47
102
}
330
47
100
AcDbScale
 70
     0
300
8:1
140
8.0
141
1.0
290
     0
  0
SCALE
  5
57
102
{ACAD_REACTORS
330
47
102
}
330
47
100
AcDbScale
 70
     0
300
10:1
140
10.0
141
1.0
290
     0
  0
SCALE
  5
58
102
{ACAD_REACTORS
330
47
102
}
330
47
100
AcDbScale
 70
     0
300
100:1
140
100.0
141
1.0
290
     0
  0
SCALE
  5
59
102
{ACAD_REACTORS
330
47
102
}
330
47
100
AcDbScale
 70
     0
300
1/128" = 1'-0"
140
0.0078125
141
12.0
290
     0
  0
SCALE
  5
5A
102
{ACAD_REACTORS
330
47
102
}
330
47
100
AcDbScale
 70
     0
300
1/64" = 1'-0"
140
0.015625
141
12.0
290
     0
  0
SCALE
  5
5B
102
{ACAD_REACTORS
330
47
102
}
330
47
100
AcDbScale
 70
     0
300
1/32" = 1'-0"
140
0.03125
141
12.0
290
     0
  0
SCALE
  5
5C
102
{ACAD_REACTORS
330
47
102
}
330
47
100
AcDbScale
 70
     0
300
1/16" = 1'-0"
140
0.0625
141
12.0
290
     0
  0
SCALE
  5
5D
102
{ACAD_REACTORS
330
47
102
}
330
47
100
AcDbScale
 70
     0
300
3/32" = 1'-0"
140
0.09375
141
12.0
290
     0
  0
SCALE
  5
5E
102
{ACAD_REACTORS
330
47
102
}
330
47
100
AcDbScale
 70
     0
300
1/8" = 1'-0"
140
0.125
141
12.0
290
     0
  0
SCALE
  5
5F
102
{ACAD_REACTORS
330
47
102
}
330
47
100
AcDbScale
 70
     0
300
3/16" = 1'-0"
140
0.1875
141
12.0
290
     0
  0
SCALE
  5
60
102
{ACAD_REACTORS
330
47
102
}
330
47
100
AcDbScale
 70
     0
300
1/4" = 1'-0"
140
0.25
141
12.0
290
     0
  0
SCALE
  5
61
102
{ACAD_REACTORS
330
47
102
}
330
47
100
AcDbScale
 70
     0
300
3/8" = 1'-0"
140
0.375
141
12.0
290
     0
  0
SCALE
  5
62
102
{ACAD_REACTORS
330
47
102
}
330
47
100
AcDbScale
 70
     0
300
1/2" = 1'-0"
140
0.5
141
12.0
290
     0
  0
SCALE
  5
63
102
{ACAD_REACTORS
330
47
102
}
330
47
100
AcDbScale
 70
     0
300
3/4" = 1'-0"
140
0.75
141
12.0
290
     0
  0
SCALE
  5
64
102
{ACAD_REACTORS
330
47
102
}
330
47
100
AcDbScale
 70
     0
300
1" = 1'-0"
140
1.0
141
12.0
290
     0
  0
SCALE
  5
65
102
{ACAD_REACTORS
330
47
102
}
330
47
100
AcDbScale
 70
     0
300
1-1/2" = 1'-0"
140
1.5
141
12.0
290
     0
  0
SCALE
  5
66
102
{ACAD_REACTORS
330
47
102
}
330
47
100
AcDbScale
 70
     0
300
3" = 1'-0"
140
3.0
141
12.0
290
     0
  0
SCALE
  5
67
102
{ACAD_REACTORS
330
47
102
}
330
47
100
AcDbScale
 70
     0
300
6" = 1'-0"
140
6.0
141
12.0
290
     0
  0
SCALE
  5
68
102
{ACAD_REACTORS
330
47
102
}
330
47
100
AcDbScale
 70
     0
300
1'-0" = 1'-0"
140
12.0
141
12.0
290
     0
  0
ENDSEC
  0
EOF
